<svg xmlns="http://www.w3.org/2000/svg" xmlns:xlink="http://www.w3.org/1999/xlink" width="482" height="505" viewBox="0 0 482 505"><defs><style>.a{fill:none;}.ah,.b{fill:#006cff;}.b{opacity:0.18;}.ab,.ai,.al,.am,.ao,.aw,.ax,.b,.ba,.bj,.bp,.u,.w,.y,.z{isolation:isolate;}.c{fill:#e5460e;}.d{fill:#6736a9;}.e{fill:#e7d900;}.f{fill:url(#a);}.g{fill:#98be09;}.h{fill:#ff850c;}.i{fill:url(#b);}.j{fill:#ffd342;}.k{fill:#ffdf7b;}.l{fill:#f46d36;}.m,.u{opacity:0.36;}.n{fill:#02aaac;}.o{fill:#2d7f75;}.p{fill:#c6c6c6;}.bp,.q{fill:#b7b7b7;}.r{opacity:0.68;}.s{fill:gray;}.t{fill:#fff;}.v,.w{fill:#cc9281;}.w{opacity:0.44;}.x{fill:url(#c);}.y{opacity:0.51;fill:url(#d);}.z{opacity:0.45;fill:url(#e);}.aa,.ab{fill:#ffae43;}.ab{opacity:0.56;}.ac{fill:url(#f);}.ad,.ax{fill:#495059;}.ae{fill:#f2f2f2;}.af,.ba{fill:#d6d6d6;}.ag{fill:#ea9573;}.ai,.az{fill:#3da6c0;}.ai,.ax,.ay{opacity:0.4;}.aj{fill:#1f6884;}.ak{fill:#f8a37a;}.al,.am,.as,.aw{fill:#dd7258;}.al{opacity:0.31;}.am{opacity:0.09;}.an,.ao{fill:#672410;}.ao{opacity:0.32;}.ap{fill:#2d2d2d;}.aq{fill:#a33;}.ar{fill:#e56e6e;}.at{fill:#56170d;}.au{opacity:0.28;}.av,.aw{opacity:0.12;}.ba{opacity:0.33;}.bb{fill:#e7a68d;}.bc{fill:#f4b5a2;}.bd{fill:#3882c9;}.be{fill:#c6bfb9;}.bf{fill:#d3ccc7;}.bg{fill:#f9c853;}.bh{fill:#70ceeb;}.bi{fill:#277789;}.bj{fill:#712e57;opacity:0.26;}.bk{fill:#f2704f;}.bl{opacity:0.42;}.bm{opacity:0.24;}.bn{fill:#848484;}.bo{fill:#a0a0a0;}.bp{opacity:0.35;}.bq{fill:url(#g);}.br{fill:url(#h);}.bs{fill:#fdd043;}.bt{fill:#3971a1;}.bu{fill:#457095;}.bv{fill:#527b9f;}.bw{fill:#3d6b91;}.bx{fill:#fdfcea;}.by{fill:#f2f9fb;}.bz{fill:#d3b730;}.ca{fill:#fefefd;}</style><linearGradient id="a" x1="57.552" y1="-33.021" x2="57.516" y2="-33.063" gradientUnits="objectBoundingBox"><stop offset="0" stop-color="#00c3ff"/><stop offset="0.08" stop-color="#00c3ff"/><stop offset="0.47" stop-color="#0097fc"/><stop offset="0.481" stop-color="#0096fc"/><stop offset="1" stop-color="#0069f9"/></linearGradient><linearGradient id="b" x1="39.015" y1="-27.645" x2="38.979" y2="-27.675" xlink:href="#a"/><linearGradient id="c" x1="9.387" y1="-6.007" x2="9.387" y2="-6.003" gradientUnits="objectBoundingBox"><stop offset="0" stop-color="#ffd247"/><stop offset="0.996" stop-color="#ffdf7b"/></linearGradient><linearGradient id="d" x1="9.309" y1="-8.59" x2="9.309" y2="-8.583" xlink:href="#c"/><linearGradient id="e" x1="10.164" y1="-20.182" x2="10.172" y2="-20.182" xlink:href="#c"/><linearGradient id="f" x1="8.074" y1="-12.186" x2="8.074" y2="-12.177" gradientUnits="objectBoundingBox"><stop offset="0.004" stop-color="#ffcb64"/><stop offset="1" stop-color="#ffa538"/></linearGradient><linearGradient id="g" x1="21.516" y1="-20.556" x2="21.5" y2="-20.582" xlink:href="#a"/><linearGradient id="h" x1="26.174" y1="-21.834" x2="26.158" y2="-21.86" xlink:href="#a"/></defs><g transform="translate(1821.534 -1616.84)"><rect class="a" width="482" height="505" transform="translate(-1821.534 1616.84)"/><rect class="a" width="482" height="505" transform="translate(-1821.534 1616.84)"/><path class="b" d="M-1360.784,1920.915c-5.357-11.952-12.575-23.627-12.941-37.092-.384-14.145,4.691-27.89,9.276-41.062,8.076-23.193,16.384-49.571,6.608-73.634a51.143,51.143,0,0,0-25.416-27.146c-10.836-5.162-22.43-7.362-34.029-10.057-10.021-2.328-20.55-5.431-27.568-11.739-7.44-6.686-12.153-14.588-17.359-23.553-11.138-19.178-22.372-39.087-44.546-46.829-13.6-4.749-28.607-3.275-42.449-.478-12.3,2.486-25.075,5.967-35.887,12.545a50.851,50.851,0,0,0-23.462,31.5c-3.2,12.81-2.048,26.367-5.978,39.01-5.01,16.116-17.351,27.378-31.653,35.3-2.827-3.353-8.594-4.31-11.3.65-2.026,3.713-7.663,6.62-11.234,8.459a44.353,44.353,0,0,1-5.867,2.456q-1.807.575-3.619,1.125-2.25.63-4.515,1.14c-10.646,2.419-20.946,2.824-32.108,3-23.024.369-50.357,2.468-66.252,21.5-19.74,23.631-10.987,54.409-.876,80.065,4.994,12.671,9.594,25.271,9.889,39.033.329,15.362-2.648,30.529-4.164,45.759-2.406,24.2.726,51.141,18.1,69.644,9,9.579,21.362,14.764,34.385,15.49,13.134.732,26.134-3.506,38.492-7.386,11.311-3.552,23.245-7.68,35.263-5.967,12.791,1.821,24.23,8.8,35.416,14.784,13.471,7.213,27.5,13.513,42.892,14.783,13.669,1.123,26.621-3.6,37.627-11.431,9.43-6.709,17.079-14.753,27.464-19.663,9.794-4.632,21.695-1.012,32.052,3.423,12.438,5.327,24.029,10.856,37.726,11.883,11.811.886,24.57-2.087,33.232-10.56,9.957-9.739,9.934-22.733,11.36-35.6.525-4.74,1.47-8.027,4.951-11.012,2.738-2.348,8.763-5.239,12.774-7.629,12.227-7.288,19.9-17.867,21.623-32.1C-1351.232,1945.974-1355.307,1933.13-1360.784,1920.915Z"/><path class="c" d="M-1790.764,1914.609c-1.47-8.057-7.877-18.12-17.362-13.25-6.938,3.561-7.726,12.621-7.724,19.551,0,8.482.06,16.276,7.8,21.428,4.467,2.975,9.982,1.335,13.734-1.773C-1787.249,1934.713-1789.293,1922.651-1790.764,1914.609Z"/><path class="d" d="M-1636.807,2059.884a22.373,22.373,0,0,0-10.548-3.738c-6.437-2.05-14.435.968-19.2,5.471a23.53,23.53,0,0,0-7.042,21.917c3.355,14.884,21.984,22.265,34.972,14.7C-1624.731,2090.137-1623.805,2069.134-1636.807,2059.884Z"/><path class="e" d="M-1788.937,1741.492a22.24,22.24,0,0,0-14.36,1.184,22.6,22.6,0,0,0-17.8,26.547,22.557,22.557,0,0,0,1.821,5.453c7.3,15.5,28.609,19.636,40.832,7.4C-1765.536,1769.156-1770.641,1746.064-1788.937,1741.492Z"/><path class="f" d="M-1786.174,1707.335a12.623,12.623,0,0,0-3.245-5.568l-2.554-1.973a12.564,12.564,0,0,0-6.367-1.723,9.529,9.529,0,0,0-4.862,1.087,12.969,12.969,0,0,0-7.756,11.531l.451,3.354a12.6,12.6,0,0,0,3.245,5.567l2.554,1.973a12.546,12.546,0,0,0,6.368,1.723,9.487,9.487,0,0,0,4.861-1.087,12.97,12.97,0,0,0,7.756-11.53Z"/><path class="g" d="M-1613.5,1647.928a15.876,15.876,0,0,0-7.837-9.315c-3.139-1.485-6.425-2.321-9.89-1.366a13.07,13.07,0,0,0-3.991,1.909,16.686,16.686,0,0,0-2.654,1.309c-4.2,2.549-6.49,7.787-6.38,12.584.218,9.508,9.525,15.342,18.3,14.162C-1617.03,1666.012-1610.406,1656.806-1613.5,1647.928Z"/><path class="h" d="M-1401.29,1683.005a20.523,20.523,0,0,0-23.178-2.624c-5.53,2.839-9.939,8.459-10.714,14.556-3.217,7.984-.265,18.522,7.192,22.8,14.148,8.107,32.3-.374,33.826-16.829A21.965,21.965,0,0,0-1401.29,1683.005Z"/><path class="i" d="M-1360.743,1858.874c-6.949,5.973-5.042,19.253-1.2,26.428,2.4,4.476,8.654,7.082,13.529,5.5,5.417-1.752,8.2-6.055,8.795-11.551C-1338.526,1869.113-1348.614,1848.448-1360.743,1858.874Z"/><path class="j" d="M-1480.8,2058.287a11.025,11.025,0,0,0-4.377-7.589,11.2,11.2,0,0,0-10.142-2.081c-4.136,1.351-7.839,3.479-10.2,7.254a9.191,9.191,0,0,0-1.131,6.077,8.7,8.7,0,0,0,2.621,5.471,16.671,16.671,0,0,0,2.418,1.826c.237.126.494.226.743.336a18.255,18.255,0,0,0,8.642,1.886,11.634,11.634,0,0,0,11.528-11.739A11.588,11.588,0,0,0-1480.8,2058.287Z"/><path class="k" d="M-1580.747,1872.717q-3.664-9.921-7.325-19.843l1.1-.255-8.347,12.414c-.371.55-.969.821-1.185,0q-3.194-12.231-6.775-24.356a2.357,2.357,0,0,1,.52-2c.427-.455.831-.307,1,.261q3.579,12.126,6.775,24.357h-1.183l8.347-12.414c.208-.307.85-.927,1.1-.254q3.661,9.922,7.325,19.844a2.385,2.385,0,0,1-.251,2c-.2.33-.857.908-1.1.254Z"/><path class="k" d="M-1596.224,1840.843l-10.959,2.555a.358.358,0,0,1-.43-.268.363.363,0,0,1,.005-.179l3.186-11.194a.357.357,0,0,1,.44-.247.371.371,0,0,1,.17.106l7.773,8.64a.358.358,0,0,1-.026.505A.357.357,0,0,1-1596.224,1840.843Z"/><path class="l" d="M-1676.035,1853.255l-3.332.479-2.455.349a9.478,9.478,0,0,1-1.189-2.232,43.017,43.017,0,0,0-2.947-5.607q.946-.426,1.9-.849l.043-.019a4.776,4.776,0,0,0,2.543-1.945C-1680.058,1845.9-1677.456,1850.782-1676.035,1853.255Z"/><g class="m"><path class="l" d="M-1683.3,1845.325c.969,1.919,2.913,6.028,3.823,7.977l.11.431-2.455.35a9.478,9.478,0,0,1-1.189-2.232,43.091,43.091,0,0,0-2.947-5.608q.946-.426,1.9-.849Z"/></g><path class="k" d="M-1681.511,1843.394a2.928,2.928,0,0,1-1.538,2.214,4.188,4.188,0,0,1-2.876.7c-.133-1.4-.38-2.811-.6-4.218-.133-.861-.258-1.723-.34-2.578.819.6,1.647,1.145,2.464,1.7A30.071,30.071,0,0,1-1681.511,1843.394Z"/><path class="l" d="M-1684.4,1841.213a1.748,1.748,0,0,1-2.125.875c-.133-.861-.258-1.723-.34-2.578C-1686.046,1840.1-1685.218,1840.654-1684.4,1841.213Z"/><path class="n" d="M-1672.78,1856.529l-2.1-1.136-1.545-.838a14.273,14.273,0,0,1,.011-2.531c.12-2.106.136-4.226.051-6.333l1.375.136h.031a2.292,2.292,0,0,0,2.1-.527C-1672.809,1848.153-1672.829,1853.682-1672.78,1856.529Z"/><g class="m"><path class="o" d="M-1674.52,1846.124c-.041,2.151-.2,6.691-.287,8.839l-.072.433-1.545-.838a14.262,14.262,0,0,1,.011-2.531c.12-2.106.136-4.226.05-6.333l1.375.136Z"/></g><path class="k" d="M-1672.865,1845.255a2.03,2.03,0,0,1-1.6,1.238,2.2,2.2,0,0,1-1.9-.731c.364-1.3.666-2.66.982-4.008.194-.825.393-1.642.615-2.439.291.91.6,1.782.9,2.66C-1673.5,1843.04-1673.148,1844.109-1672.865,1845.255Z"/><path class="n" d="M-1673.864,1841.976a.9.9,0,0,1-1.268.114.893.893,0,0,1-.249-.335c.194-.825.393-1.642.615-2.439C-1674.476,1840.226-1674.166,1841.1-1673.864,1841.976Z"/><path class="p" d="M-1667.876,1856.273l-2.8-1.678-2.06-1.236a13.151,13.151,0,0,1,.376-2.875,60.24,60.24,0,0,0,.975-7.193l1.92.407.043.01a3.836,3.836,0,0,0,3.039-.215C-1666.719,1846.742-1667.538,1853.023-1667.876,1856.273Z"/><path class="q" d="M-1668.843,1844.12c-.364,2.437-1.24,7.57-1.666,10l-.163.478-2.06-1.236a13.091,13.091,0,0,1,.377-2.875,60.672,60.672,0,0,0,.975-7.193l1.92.407Z"/><path class="k" d="M-1666.384,1843.436a2.759,2.759,0,0,1-2.43,1.114,3.5,3.5,0,0,1-2.577-1.179c.7-1.411,1.319-2.9,1.958-4.377.391-.9.789-1.8,1.217-2.66.279,1.09.591,2.137.891,3.19A37.877,37.877,0,0,1-1666.384,1843.436Z"/><path class="p" d="M-1667.327,1839.524a1.446,1.446,0,0,1-2.013-.372,1.472,1.472,0,0,1-.1-.158c.391-.9.789-1.8,1.217-2.66C-1667.936,1837.424-1667.626,1838.471-1667.327,1839.524Z"/><path class="k" d="M-1666.452,1872.252c-2.962.742-11.754,1.3-12.575,1.386-.386.043-1.276-.815-2.282-3.5-1.129-3-2.411-8.3-3.317-17.184a70.376,70.376,0,0,0,16.893-1.356l1.057-.206S-1663.49,1871.51-1666.452,1872.252Z"/><path class="k" d="M-1666.452,1872.252c-2.962.742-11.754,1.3-12.575,1.386-.386.043-1.276-.815-2.282-3.5a26.805,26.805,0,0,0,5.9-1.067,11.444,11.444,0,0,0,6.486-6.975c1.244-3.278,2.077-7.029,1.194-10.5.349-.067.7-.136,1.058-.206C-1666.676,1851.389-1663.491,1871.51-1666.452,1872.252Z"/><g class="r"><path class="s" d="M-1493.157,1827.962a16.606,16.606,0,0,1-.049-6.086c.344-1.882,1.219-3.6,1.6-5.461a.3.3,0,0,0-.208-.369.3.3,0,0,0-.3.08c-1.6,1.383-2.182,3.735-2.445,5.747a14.682,14.682,0,0,0,.557,6.326.436.436,0,0,0,.537.3.436.436,0,0,0,.3-.537Z"/><path class="s" d="M-1486.91,1810.533a71.967,71.967,0,0,1,5.517-4.677c1.691-1.316,4.014-2.379,5.313-4.108a.312.312,0,0,0-.119-.426.309.309,0,0,0-.154-.041c-2.248.183-4.377,2.058-6.07,3.407a28.661,28.661,0,0,0-5.077,5.4c-.261.349.293.734.59.451Z"/><path class="s" d="M-1437.965,1790.337c1.845-.92,3.713-1.812,5.573-2.706.9-.433,1.795-.88,2.7-1.3a6.827,6.827,0,0,0,2.553-1.485.649.649,0,0,0-.033-.917.658.658,0,0,0-.429-.174,5.639,5.639,0,0,0-2.69.818c-.962.444-1.924.9-2.857,1.4a42.243,42.243,0,0,0-5.344,3.467.52.52,0,0,0-.187.713.52.52,0,0,0,.713.187Z"/><path class="s" d="M-1418.477,1778.6a9.11,9.11,0,0,0,2.068-2.148,16.87,16.87,0,0,0,1.522-2.869,17.239,17.239,0,0,0,.921-2.937,4.006,4.006,0,0,0,0-2.876.777.777,0,0,0-1.063-.268.8.8,0,0,0-.146.113,4.692,4.692,0,0,0-.7,2.353,17.093,17.093,0,0,1-.789,2.839,30.343,30.343,0,0,1-2.682,5.126c-.351.571.41,1.037.869.667Z"/><path class="s" d="M-1570.562,1782.015c.975,1.43,2.053,2.79,3.126,4.148a17.639,17.639,0,0,0,3.419,3.8.567.567,0,0,0,.772-.225.566.566,0,0,0,.053-.415,17.469,17.469,0,0,0-2.8-4.043c-1.107-1.41-2.231-2.816-3.443-4.135-.543-.591-1.584.192-1.122.867Z"/><path class="s" d="M-1559.144,1777.51a5.886,5.886,0,0,0,.132,2.794c.2,1.085.4,2.172.651,3.248.235,1.009.48,2.019.785,3.01a13.839,13.839,0,0,0,1.149,3.036.479.479,0,0,0,.661.153.482.482,0,0,0,.226-.4,15.332,15.332,0,0,0-.436-3.036c-.2-1.084-.466-2.159-.716-3.232-.234-1.011-.5-2.013-.74-3.021a6.453,6.453,0,0,0-1.041-2.735.4.4,0,0,0-.566,0,.4.4,0,0,0-.105.183Z"/><path class="s" d="M-1547.322,1776.9a32.388,32.388,0,0,0-2.164,6.5c-.292,1.109-.518,2.225-.732,3.352a14.125,14.125,0,0,0-.537,3.354.589.589,0,0,0,.612.566.591.591,0,0,0,.479-.282,14.383,14.383,0,0,0,.99-3.027c.325-1.1.681-2.182.99-3.285a46.626,46.626,0,0,0,1.652-6.651c.09-.715-.893-1.307-1.291-.53Z"/><path class="s" d="M-1701.881,1751.832a29.043,29.043,0,0,0,.134-8.676,64.464,64.464,0,0,0-1.462-8.629l-.84.492c3.884,3.429,7.627,7.017,11.523,10.433l.269-1.026c-6.26,1.163-12.739.056-18.951-.91l.009.984a48.714,48.714,0,0,0,17.3-8.644l-.562-.432c-2.193,4.372-4.5,8.7-6.454,13.187-.107.25.234.466.376.217,2.424-4.241,4.508-8.68,6.7-13.046.147-.291-.175-.708-.49-.488a56.129,56.129,0,0,1-17.142,8.225c-.456.127-.508.9.01.982,6.441,1,12.86,1.841,19.382,1.132a.624.624,0,0,0,.593-.653.633.633,0,0,0-.168-.4c-3.839-3.487-7.831-6.8-11.681-10.276a.507.507,0,0,0-.717.021.5.5,0,0,0-.123.471,62.2,62.2,0,0,1,1.346,8.56c.239,2.8.186,5.638.523,8.422.027.224.372.311.427.052Z"/><path class="s" d="M-1546.91,1729.606c1.974-2.513,4.048-4.952,6.16-7.354l-.835-.338c.422,3.517.668,7.056.8,10.6l.827-.351a87.8,87.8,0,0,0-9.381-8.279l-.319.776c3.991,1.147,8.042-1.157,12.013-.01l-.208-.761a37.429,37.429,0,0,0-4.177,3.7.39.39,0,0,0,.025.551.39.39,0,0,0,.527,0c1.4-1.235,2.8-2.467,4.271-3.612.287-.223.09-.678-.208-.762-4-1.132-8.045,1.191-12.028.071-.5-.14-.675.507-.319.777a71.911,71.911,0,0,1,9.118,8.233.489.489,0,0,0,.692-.018.5.5,0,0,0,.135-.333,94.44,94.44,0,0,0-.8-10.6c-.048-.375-.531-.692-.835-.34-2.121,2.453-4.086,5.02-5.961,7.666-.2.288.274.659.494.379Z"/><path class="s" d="M-1671.738,1695.33c1.978-1.293,5.017.888,3.349,3.057a2.195,2.195,0,0,1-3.077.415c-.044-.034-.087-.069-.129-.107a3.741,3.741,0,0,1-1.713-3.288.186.186,0,0,0-.192-.179.193.193,0,0,0-.085.023c-1.888.969.063,3.424,1.132,4.177a3.183,3.183,0,0,0,4.484-.4l.043-.053a2.735,2.735,0,0,0-.194-3.759,2.8,2.8,0,0,0-3.721-.029.087.087,0,0,0,.008.123.086.086,0,0,0,.092.014Z"/><path class="s" d="M-1663.015,1689.007c1.767-.295,2.922,2.331.994,3.034-1.841.671-2.437-1.6-2.159-2.953a.164.164,0,0,0-.124-.2.164.164,0,0,0-.148.04,2.416,2.416,0,0,0-.192,3.341,2.67,2.67,0,0,0,3.52.572,2.3,2.3,0,0,0,.918-3.12l-.018-.033a2.041,2.041,0,0,0-2.746-.882q-.055.028-.108.06a.075.075,0,0,0-.027.1.075.075,0,0,0,.085.035Z"/><path class="s" d="M-1672.561,1686.757a1.994,1.994,0,0,1,2.2-1.159,1.41,1.41,0,0,1,.859,1.8l0,.007a1.287,1.287,0,0,1-1.526.991,1.2,1.2,0,0,1-.152-.043,2.724,2.724,0,0,1-1.357-1.659.133.133,0,0,0-.166-.086.134.134,0,0,0-.072.056c-.7,1.085.542,2.2,1.549,2.439a2.037,2.037,0,0,0,2.428-1.55c.007-.035.014-.07.02-.1a2.086,2.086,0,0,0-1.476-2.554l-.075-.019a2.014,2.014,0,0,0-2.4,1.536,2.037,2.037,0,0,0-.043.32c0,.13.173.133.213.026Z"/><path class="s" d="M-1635.565,1831.538c.626-.379.912-1.128,1.833-.925,1.153.254,1,1.814.535,2.592a2.644,2.644,0,0,1-2.731,1.261c-1.143-.28-1.556-1.666-1.39-2.721.031-.2-.19-.454-.4-.3-1.581,1.147-.681,3.4.872,4.143a3.887,3.887,0,0,0,4.982-2.068c.682-1.558.262-3.809-1.664-4.139a2.28,2.28,0,0,0-2.11.683c-.35.418-.609,1.1-.091,1.475a.159.159,0,0,0,.163,0Z"/><path class="s" d="M-1627.578,1837.614c.118-.954,1.334-.87,1.778-.2a2.555,2.555,0,0,1,.232,1.7,2.959,2.959,0,0,1-2.186,2.477c-1.494.172-1.82-1.685-1.261-2.721.569-1.054,1.865-1.651,2.847-2.252a.185.185,0,0,0,.059-.254.187.187,0,0,0-.159-.088c-2.083.11-4.146,1.558-4.054,3.834a2.481,2.481,0,0,0,2.459,2.5,2.486,2.486,0,0,0,1.341-.38,4.236,4.236,0,0,0,1.77-5.135,2.094,2.094,0,0,0-2.189-1.308,1.639,1.639,0,0,0-1.535,1.708c.023.485.829.641.9.109Z"/><path class="s" d="M-1627.52,1827.924c.556-1.607,2.334-.319,2.8.56.482.9.535,2.035-.562,2.463-1.944.757-2.774-1.955-1.951-3.305a.316.316,0,0,0-.128-.428.317.317,0,0,0-.367.048,2.9,2.9,0,0,0-.426,4.08,2.9,2.9,0,0,0,4.079.425,2.942,2.942,0,0,0,.394-.387c1.28-1.441.3-3.755-1.062-4.772-1.193-.891-3.328-.471-3.031,1.32.023.14.213.106.25,0Z"/><path class="s" d="M-1648.995,1905.541a30.061,30.061,0,0,1-18.339-15.1c-.36-.708-1.369-.31-1.4.39a75.155,75.155,0,0,1-.747,8.065l1.416.172c.2-3.358.109-6.733-.019-10.091l-.543.558c2.208.221,4.408.416,6.624.531.427.021.523-.69.092-.758-2.239-.359-4.478-.629-6.731-.878a.557.557,0,0,0-.545.56c.092,3.375-.1,6.73-.317,10.1-.053.8,1.291.978,1.416.173a78.427,78.427,0,0,0,.855-8.449l-1.4.389a29,29,0,0,0,19.4,15.244.467.467,0,0,0,.531-.394.467.467,0,0,0-.295-.506Z"/><path class="s" d="M-1799.209,1870.366a41.819,41.819,0,0,0,5.732-.677,52.354,52.354,0,0,1,11.262-.114,19.072,19.072,0,0,0,5.459.251c.226-.041.224-.349.058-.456-1.623-1.041-3.475-1.153-5.357-1.319a52.51,52.51,0,0,0-11.8.3,16.963,16.963,0,0,0-5.518,1.414.326.326,0,0,0-.1.449.324.324,0,0,0,.269.151Z"/><path class="s" d="M-1768.34,1872.8c1.879,1.723,4.008,3.155,5.9,4.877.952.87,1.872,1.784,2.744,2.736a13.486,13.486,0,0,0,2.618,2.477.367.367,0,0,0,.5-.144.366.366,0,0,0,.035-.269c-.763-2.4-3.182-4.339-5.067-5.878a18.88,18.88,0,0,0-6.684-3.869.041.041,0,0,0-.05.03.038.038,0,0,0,.011.039Z"/><path class="s" d="M-1752,1887.922c.75.655,1.308,1.44,2.13,2.039.936.682,1.89,1.339,2.835,2.009l2.668,1.891a5.386,5.386,0,0,0,2.527,1.254c.268.03.386-.3.283-.5a5.145,5.145,0,0,0-1.975-1.791l-2.725-1.792c-.909-.6-1.814-1.2-2.725-1.792a14.312,14.312,0,0,0-1.4-.825c-.5-.246-1.045-.336-1.538-.592-.06-.031-.13.049-.075.1Z"/><path class="s" d="M-1731.005,1901.137a14.353,14.353,0,0,0,2.876,1.669c1.011.428,2.035.87,3.076,1.215,1.962.651,4.172,1.376,6.213.837a.233.233,0,0,0,.151-.292.233.233,0,0,0-.1-.126c-1.754-1.066-3.94-1.253-5.92-1.74-1.023-.253-2.039-.487-3.046-.806-1.081-.342-2.119-.6-3.212-.852a.055.055,0,0,0-.07.031.052.052,0,0,0,.031.069Z"/><path class="s" d="M-1679.071,1911.2a25.144,25.144,0,0,0,5.143.984c.917.09,1.835.167,2.754.25a5.436,5.436,0,0,0,2.482-.065.5.5,0,0,0,.315-.632.5.5,0,0,0-.2-.261,4.955,4.955,0,0,0-2.221-.448c-.982-.073-1.966-.12-2.949-.182a25.134,25.134,0,0,0-5.323.193c-.087.014-.069.139,0,.16Z"/><path class="s" d="M-1660.041,1912.015c2.214.375,4.419.558,6.661.743l3.428.287a8.563,8.563,0,0,0,3.327.019c.307-.1.446-.606.1-.761a7.156,7.156,0,0,0-2.835-.34l-3.625-.067c-2.362-.045-4.69-.1-7.045.057-.033,0-.043.054-.007.061Z"/><path class="s" d="M-1752.706,1801.8a31.89,31.89,0,0,1-2.69-6.95c-.329-1.171-.546-2.364-.77-3.558-.22-1.172-.6-2.311-.8-3.481a.168.168,0,0,0-.207-.114.167.167,0,0,0-.114.114,14.219,14.219,0,0,0-.312,3.686,20.887,20.887,0,0,0,.761,3.756,23.706,23.706,0,0,0,3.474,6.934.384.384,0,0,0,.532.113.386.386,0,0,0,.131-.5Z"/><path class="s" d="M-1756.247,1776.651a27.434,27.434,0,0,0,2.115-4.417,10.956,10.956,0,0,0,1.255-4.171.272.272,0,0,0-.281-.263.269.269,0,0,0-.18.076,10.914,10.914,0,0,0-1.8,3.945,27.49,27.49,0,0,0-1.319,4.744.114.114,0,0,0,.089.136.115.115,0,0,0,.12-.05Z"/><path class="s" d="M-1751.067,1757.645a13.6,13.6,0,0,0-.187-3.134,7.854,7.854,0,0,0-.861-3.009.41.41,0,0,0-.565-.132.407.407,0,0,0-.177.232c-.6,1.909.428,4.6,1.614,6.116.063.079.171,0,.177-.076Z"/><path class="s" d="M-1734.109,1836.252a27.351,27.351,0,0,0,3.987,5.609q1.188,1.272,2.494,2.426c.41.363.823.732,1.261,1.061a3.606,3.606,0,0,0,1.452.515.189.189,0,0,0,.228-.139.192.192,0,0,0-.019-.137,5.19,5.19,0,0,0-.819-1.2c-.431-.384-.917-.717-1.36-1.09-.845-.709-1.657-1.459-2.433-2.242a60.464,60.464,0,0,1-4.5-5.031c-.136-.173-.391.048-.293.227Z"/><path class="s" d="M-1717.725,1848.221c1.679.875,3.755,1.021,5.6,1.346,1.761.311,3.827.784,5.556.125a.136.136,0,0,0,.089-.171.143.143,0,0,0-.058-.076c-1.515-1.075-3.626-1.133-5.418-1.274-1.864-.146-3.906-.526-5.748-.1a.083.083,0,0,0-.056.1.08.08,0,0,0,.037.046Z"/><path class="s" d="M-1697.548,1850.955a13.554,13.554,0,0,1,4.381.793,13.169,13.169,0,0,1,2.1.966,5.792,5.792,0,0,0,1.634.82.315.315,0,0,0,.378-.237.319.319,0,0,0-.03-.221c-.632-1.248-2.589-1.857-3.861-2.191a10.342,10.342,0,0,0-4.624-.052c-.071.012-.052.124.018.122Z"/><path class="s" d="M-1658.225,1866.7a28.26,28.26,0,0,1,2.255-5.423c.952-1.623,2.311-2.919,3.267-4.532.091-.155-.087-.291-.228-.226-1.842.825-3.062,2.674-3.975,4.414a12.985,12.985,0,0,0-1.6,5.732.145.145,0,0,0,.154.137.145.145,0,0,0,.131-.1Z"/><path class="s" d="M-1647.865,1851.95a12.323,12.323,0,0,0,4.559-2.341c1.187-.92,2.89-2.162,2.922-3.787a.253.253,0,0,0-.258-.247.2.2,0,0,0-.059.009c-1.357.484-2.2,1.97-3.25,2.922a31.028,31.028,0,0,1-4.116,2.971.259.259,0,0,0-.079.36.261.261,0,0,0,.279.114Z"/><path class="s" d="M-1626.615,1819.272a8.125,8.125,0,0,0,1.3-10.111c-.083-.121-.333-.1-.31.086a23.072,23.072,0,0,1,.3,4.832,17.5,17.5,0,0,1-1.4,5.107c-.03.073.049.147.114.087Z"/><path class="s" d="M-1628.272,1803.074a17.357,17.357,0,0,0-1.632-3.252,20.463,20.463,0,0,0-2.189-2.5,9.451,9.451,0,0,0-5.7-3.048c-.24-.026-.337.311-.186.462a59.866,59.866,0,0,0,4.967,3.975,28.589,28.589,0,0,1,2.3,2.156,29.028,29.028,0,0,1,2.263,2.35c.086.111.227-.031.179-.139Z"/><path class="s" d="M-1646.924,1788.492c-.173-.458-.154-.956-.348-1.417a8.5,8.5,0,0,0-.721-1.338c-.565-.857-1.216-1.671-1.86-2.473s-1.3-1.587-2.013-2.319c-.572-.59-1.4-1.407-2.285-1.307a.278.278,0,0,0-.266.274,3.053,3.053,0,0,0,1.077,2c.686.758,1.41,1.479,2.083,2.252s1.291,1.562,1.914,2.365a13.307,13.307,0,0,0,.94,1.1c.375.389.887.615,1.254.994.09.092.273,0,.226-.132Z"/><path class="s" d="M-1656.838,1772.463c.219-1.47.937-3.293.321-4.744-.091-.215-.421-.327-.552-.069-.72,1.435-.125,3.282.007,4.786.01.12.2.163.224.028Z"/><path class="s" d="M-1593.813,1864.427a20.336,20.336,0,0,0,2.3-2.981q1.269-1.716,2.508-3.451c1.61-2.256,3.209-4.516,4.728-6.835l-.731-.092c2.5,7.874,3.91,16.2,7.263,23.788.125.283.534.071.475-.2-.879-4.035-2.295-7.948-3.516-11.889s-2.542-7.9-3.453-11.913a.4.4,0,0,0-.494-.275.4.4,0,0,0-.173.1c-1.651,2.113-3.228,4.273-4.792,6.449-.791,1.1-1.577,2.2-2.349,3.311a23.306,23.306,0,0,0-2.358,3.536.377.377,0,0,0,.158.51.378.378,0,0,0,.432-.058Z"/><path class="s" d="M-1561.712,1844.749a58.331,58.331,0,0,0,4.292,9.527c.823,1.549,1.679,3.076,2.6,4.567a24.058,24.058,0,0,0,2.987,4.222c.22.224.682,0,.556-.325a36.472,36.472,0,0,0-2.362-4.372c-.867-1.523-1.733-3.049-2.57-4.588-1.671-3.074-3.116-6.271-4.823-9.323a.377.377,0,0,0-.519-.117.375.375,0,0,0-.164.408Z"/><path class="s" d="M-1552.627,1845.445a22.594,22.594,0,0,0,.474,6.5,22.881,22.881,0,0,0,1.674,6.6.334.334,0,0,0,.461.109.337.337,0,0,0,.159-.281,25.685,25.685,0,0,0-.629-3.019c-.239-1.1-.456-2.2-.67-3.3-.418-2.164-.446-4.494-1.047-6.608-.056-.193-.389-.219-.421,0Z"/><path class="s" d="M-1445.494,1844.19a38.5,38.5,0,0,0-10.15,9.885c-2.736,3.783-5.29,8.3-6.006,12.979-.041.269.329.474.475.2,1.06-2.01,1.962-4.1,3.02-6.109a53.468,53.468,0,0,1,3.668-6,59.546,59.546,0,0,1,9.522-10.263c.371-.326-.115-.954-.53-.685Z"/><path class="s" d="M-1447.817,1854.829a17.723,17.723,0,0,0-6.582,4.548,19.3,19.3,0,0,0-2.443,3.29,13.73,13.73,0,0,0-1.675,3.688.324.324,0,0,0,.246.387.323.323,0,0,0,.345-.145c.7-1.042,1.215-2.2,1.935-3.248a31.159,31.159,0,0,1,2.447-3.119,36.1,36.1,0,0,1,5.816-5.192c.1-.069.041-.261-.088-.209Z"/><path class="s" d="M-1573.059,1900.885a2.6,2.6,0,0,0-.359-1.283l-.408-.527a2.589,2.589,0,0,0-1.183-.678,2.9,2.9,0,0,0-1.978.273,2.9,2.9,0,0,0-1.2,1.592l-.086.694a2.623,2.623,0,0,0,.359,1.283l.408.528a2.6,2.6,0,0,0,1.185.677,2.52,2.52,0,0,0,2.71-.948,1.981,1.981,0,0,0,.471-.916Z"/><path class="s" d="M-1567.065,1888.791a1.594,1.594,0,0,0-2.18-.569h0a1.765,1.765,0,0,0-.736.973,1.6,1.6,0,0,0,.167,1.208,1.593,1.593,0,0,0,2.178.57h0a1.782,1.782,0,0,0,.736-.972A1.615,1.615,0,0,0-1567.065,1888.791Z"/><path class="s" d="M-1573.956,1842.279a2.4,2.4,0,0,0-.33-1.185l-.376-.487a2.393,2.393,0,0,0-1.092-.625,1.816,1.816,0,0,0-.951-.034,2.472,2.472,0,0,0-1.988,1.755l-.079.641a2.415,2.415,0,0,0,.331,1.185l.376.487a2.393,2.393,0,0,0,1.092.625,2.477,2.477,0,0,0,2.938-1.721Z"/><path class="s" d="M-1566.022,1835.778a1.62,1.62,0,0,0-1.575-.412l-.394.076a1.41,1.41,0,0,0-.98,1.736,1.405,1.405,0,0,0,.365.621l.307.259a1.615,1.615,0,0,0,1.573.41,1.611,1.611,0,0,0,1.111-1.99,1.62,1.62,0,0,0-.411-.7Z"/><path class="s" d="M-1575.183,1831.279a1.529,1.529,0,0,0-.212-.759l-.128-.243-.285-.368-.378-.289a1.364,1.364,0,0,0-.7-.216.881.881,0,0,0-.478,0,.893.893,0,0,0-.451.126.912.912,0,0,0-.4.234.907.907,0,0,0-.329.331,1.365,1.365,0,0,0-.331.643l-.06.487.068.469.183.432.287.37.376.289a1.369,1.369,0,0,0,.7.216.888.888,0,0,0,.48,0,1.375,1.375,0,0,0,.666-.216l.23-.149a1.6,1.6,0,0,0,.713-.943Z"/><path class="s" d="M-1428.93,1851.961a3.083,3.083,0,0,0-1.853-.53,2.8,2.8,0,0,0-2.137,1.095,2.636,2.636,0,0,0-.486,2.414,3.56,3.56,0,0,0,1.606,1.983,2.866,2.866,0,0,0,3.9-1.092,2.867,2.867,0,0,0-1.033-3.871Z"/><path class="s" d="M-1436.7,1836.723a2.067,2.067,0,0,0-2.828-.74h0a2.068,2.068,0,0,0-.739,2.83,2.065,2.065,0,0,0,2.827.741l0,0A2.069,2.069,0,0,0-1436.7,1836.723Z"/><path class="s" d="M-1425.967,1843.737l-.107-.35a1.575,1.575,0,0,0-1.943-1.089,1.581,1.581,0,0,0-.687.4l-.265.255a1.8,1.8,0,0,0-.008,2.545,1.8,1.8,0,0,0,2.545.008,1.8,1.8,0,0,0,.463-1.77Z"/><path class="s" d="M-1468.543,1785.729a2.021,2.021,0,0,0-.4-.523,1.1,1.1,0,0,0-.8-.914,1.139,1.139,0,0,0-1.144.406,2.049,2.049,0,0,0-.6.262,2.186,2.186,0,0,0-1.027,2.16,2.131,2.131,0,0,0,1.569,1.777,2.243,2.243,0,0,0,2.069-.562A2.211,2.211,0,0,0-1468.543,1785.729Z"/><path class="s" d="M-1455.878,1780.957a1.861,1.861,0,0,0-1.363.187,1.8,1.8,0,0,0-.635,2.466,1.8,1.8,0,0,0,1.09.824,1.843,1.843,0,0,0,1.363-.189,1.8,1.8,0,0,0,.632-2.465,1.8,1.8,0,0,0-1.087-.824Z"/><path class="s" d="M-1464.946,1774.553a1.662,1.662,0,0,0-2.273-.594h0a1.241,1.241,0,0,0-.467.431,1.257,1.257,0,0,0-.3.584,1.678,1.678,0,0,0,.175,1.259,1.661,1.661,0,0,0,2.272.595h0a1.833,1.833,0,0,0,.768-1.013A1.679,1.679,0,0,0-1464.946,1774.553Z"/><path class="s" d="M-1645.312,1884a1.509,1.509,0,0,0-.24-.735,2.04,2.04,0,0,0-1.232-.933l-.538-.065a2.007,2.007,0,0,0-.994.277l-.031.024a1.509,1.509,0,0,0-.568.522,2.068,2.068,0,0,0-.152,2.236,2.022,2.022,0,0,0,1.229.932l.537.065a2.017,2.017,0,0,0,.992-.277l.037-.015a1.956,1.956,0,0,0,.962-2.031Z"/><path class="s" d="M-1645.437,1869.345a2.451,2.451,0,0,0-.336-1.2l-.382-.495a2.442,2.442,0,0,0-1.109-.634,2.51,2.51,0,0,0-2.979,1.746l-.079.651a2.435,2.435,0,0,0,.336,1.2l.382.495a2.42,2.42,0,0,0,1.107.633,2.506,2.506,0,0,0,2.979-1.746Z"/><path class="s" d="M-1653.692,1876.489l-.107-.386a1.157,1.157,0,0,0-1.429-.8,1.152,1.152,0,0,0-.5.3l-.283.284a1.392,1.392,0,0,0,0,1.968,1.391,1.391,0,0,0,1.967,0,1.394,1.394,0,0,0,.355-1.361Z"/><path class="s" d="M-1669.663,1830.922a1.961,1.961,0,0,0-.269-.967,2.05,2.05,0,0,0-1.2-.909,2.02,2.02,0,0,0-2.4,1.406l-.065.523a1.956,1.956,0,0,0,.27.969,2.042,2.042,0,0,0,1.2.909,2.184,2.184,0,0,0,1.49-.206,1.477,1.477,0,0,0,.554-.508,1.492,1.492,0,0,0,.355-.69Z"/><path class="s" d="M-1680.594,1831.179a1.968,1.968,0,0,0-.592-1.4l-.011-.011c-.014-.018-.023-.034-.037-.052a2.1,2.1,0,0,0-.606-.546,2.722,2.722,0,0,0-.556-.224,2.075,2.075,0,0,0-1.281.109,1.924,1.924,0,0,0-.956.825,2.251,2.251,0,0,0,.941,3.041c.023.013.046.024.07.035a1.511,1.511,0,0,0,.769.238,1.493,1.493,0,0,0,.787-.042,2.09,2.09,0,0,0,1.043-.724A1.946,1.946,0,0,0-1680.594,1831.179Z"/><path class="s" d="M-1677.608,1824.05a1.293,1.293,0,0,0-.588-.758l-.361-.194a1.381,1.381,0,0,0-1.382,0,1.373,1.373,0,0,0-.49,1.879h0a1.39,1.39,0,0,0,1.2.679l.41.007.326-.048a.941.941,0,0,0,.428-.227,1.206,1.206,0,0,0,.459-.677A1.519,1.519,0,0,0-1677.608,1824.05Z"/></g><path class="d" d="M-1411.816,1739.03l6.878,5.1a.681.681,0,0,0,.954-.138.683.683,0,0,0,.1-.621l-2.478-7.613a.679.679,0,0,1,.289-.791l5.454-3.381a.683.683,0,0,0,.219-.94.683.683,0,0,0-.594-.323l-6.575.156a.68.68,0,0,1-.666-.471l-1.782-5.475a.683.683,0,0,0-.859-.438.681.681,0,0,0-.4.35l-2.853,5.823a.685.685,0,0,1-.6.383l-6.154.147a.684.684,0,0,0-.667.7.681.681,0,0,0,.276.531l4.15,3.076a.685.685,0,0,1,.208.849l-2.992,6.1a.683.683,0,0,0,.311.915.682.682,0,0,0,.662-.033l6.351-3.937A.683.683,0,0,1-1411.816,1739.03Z"/><path class="k" d="M-1720.093,1875.257l5.12,1.588a.427.427,0,0,0,.534-.284.43.43,0,0,0-.068-.384l-3.04-3.986a.427.427,0,0,1,.008-.527l2.523-3.127a.427.427,0,0,0-.063-.6.427.427,0,0,0-.421-.068l-3.853,1.454a.424.424,0,0,1-.49-.141l-2.187-2.867a.43.43,0,0,0-.6-.08.427.427,0,0,0-.165.288l-.481,4.033a.426.426,0,0,1-.273.349l-3.607,1.36a.429.429,0,0,0-.252.551.428.428,0,0,0,.276.259l3.089.958a.428.428,0,0,1,.3.459l-.5,4.228a.429.429,0,0,0,.375.476.428.428,0,0,0,.383-.157l2.938-3.641A.429.429,0,0,1-1720.093,1875.257Z"/><path class="g" d="M-1742.546,1740.865l4.221,3.305a.428.428,0,0,0,.6-.073.431.431,0,0,0,.073-.386l-1.425-4.805a.43.43,0,0,1,.194-.492l3.471-2.026a.427.427,0,0,0,.16-.583.429.429,0,0,0-.375-.217l-4.119-.011a.426.426,0,0,1-.409-.306l-1.024-3.457a.429.429,0,0,0-.533-.287.427.427,0,0,0-.256.211l-1.882,3.6a.43.43,0,0,1-.38.23l-3.855-.011a.428.428,0,0,0-.429.427.428.428,0,0,0,.164.339l2.547,1.993a.429.429,0,0,1,.115.535l-1.974,3.773a.427.427,0,0,0,.174.579.429.429,0,0,0,.426-.011l4.04-2.358A.427.427,0,0,1-1742.546,1740.865Z"/><path class="h" d="M-1694.61,1947.7l7.541-1.163a.608.608,0,0,0,.51-.692.608.608,0,0,0-.329-.453l-6.377-3.2a.609.609,0,0,1-.319-.681l1.277-5.575a.608.608,0,0,0-.455-.729.609.609,0,0,0-.58.175l-4.024,4.264a.608.608,0,0,1-.716.126l-4.586-2.3a.61.61,0,0,0-.817.272.606.606,0,0,0-.031.472l1.9,5.459a.608.608,0,0,1-.132.618l-3.766,3.991a.609.609,0,0,0,.025.861.605.605,0,0,0,.51.159l4.551-.7a.611.611,0,0,1,.668.4l1.993,5.724a.608.608,0,0,0,.776.373.608.608,0,0,0,.392-.438l1.488-6.491A.608.608,0,0,1-1694.61,1947.7Z"/><path class="k" d="M-1606.709,1795.813l4.221,3.3a.427.427,0,0,0,.6-.073.429.429,0,0,0,.074-.386l-1.425-4.805a.43.43,0,0,1,.194-.492l3.471-2.026a.427.427,0,0,0,.16-.583.429.429,0,0,0-.375-.217l-4.119-.011a.426.426,0,0,1-.409-.306l-1.024-3.456a.428.428,0,0,0-.533-.287.422.422,0,0,0-.256.21l-1.882,3.6a.43.43,0,0,1-.38.23l-3.855-.01a.428.428,0,0,0-.43.426.432.432,0,0,0,.165.339l2.547,1.993a.429.429,0,0,1,.115.535l-1.974,3.773a.427.427,0,0,0,.174.579.429.429,0,0,0,.426-.011l4.04-2.358A.425.425,0,0,1-1606.709,1795.813Z"/><path class="t" d="M-1708.822,1943.885a69.342,69.342,0,0,1-2.334-11.412l-.425.333c1.388.255,2.77.547,4.141.886s2.718.828,4.107,1.039c.285.043.52-.368.211-.514-2.508-1.185-5.571-1.6-8.287-2.066a.344.344,0,0,0-.414.256.338.338,0,0,0,0,.164,104.447,104.447,0,0,0,2.668,11.407.171.171,0,0,0,.217.108.172.172,0,0,0,.114-.2Z"/><path class="t" d="M-1678.558,1970.78a25.467,25.467,0,0,0-1.883,3.671c-.606,1.238-1.185,2.49-1.772,3.736-.325.688-1.1,1.751-.89,2.566.208.8,1.095.793,1.757.759,4.358-.223,8.536-3.122,11.333-6.314.228-.261-.069-.725-.391-.508-3.059,2.064-5.737,4.768-9.447,5.643a9.819,9.819,0,0,1-1.494.236c-.308.024-.454.088-.663-.163-.254-.3-.015-.546.133-.886.421-.964.856-1.924,1.282-2.887a35.6,35.6,0,0,0,2.377-5.711.188.188,0,0,0-.141-.225.187.187,0,0,0-.2.082Z"/><path class="t" d="M-1697.27,1932.974c2.244-2.464,4.537-4.888,6.92-7.216l-.8-.211a33.77,33.77,0,0,1,.992,3.819,28.364,28.364,0,0,0,.715,3.86c.1.277.565.334.625-.005a10.6,10.6,0,0,0-.3-3.775,33.342,33.342,0,0,0-1.109-4.157.487.487,0,0,0-.609-.322.489.489,0,0,0-.191.111c-2.36,2.364-4.627,4.805-6.757,7.378-.3.357.2.87.518.518Z"/><path class="j" d="M-1412.017,1880.359v11.413h-45.95v-10.224Z"/><path class="u" d="M-1412.016,1882.638v9.132h-45.951v-7.006c2.327.975,6.672,1.966,14.77,2.066C-1427.417,1887.024-1415.755,1886.47-1412.016,1882.638Z"/><path class="v" d="M-1614.033,1974.029l-4.89,12.53-22.419,57.426h-7.3s11.972-42.065,17.55-61.7c1.629-5.741,2.715-9.565,2.791-9.856l6.841.766Z"/><path class="w" d="M-1614.029,1974.028l-4.9,12.531-22.419,57.425h-2.251l22.132-70.788Z"/><path class="w" d="M-1628.305,1972.43l14.272,1.6-4.89,12.53a96.457,96.457,0,0,1-12.172-4.272C-1629.467,1976.545-1628.381,1972.721-1628.305,1972.43Z"/><path class="v" d="M-1569.267,2043.985h-7.078l-7.064-52.456-2.75-20.414.82.114,13.4,1.837c.005.43.289,8.043.668,18.134C-1570.476,2012.218-1569.267,2043.985-1569.267,2043.985Z"/><path class="w" d="M-1573.908,2043.984h-2.438l-7.064-52.455-2.749-20.415.82.113,5.878,10.208.1,1.1Z"/><path class="w" d="M-1571.933,1973.066c.005.43.289,8.044.668,18.134-4.224.281-8.276.378-12.143.329l-2.75-20.414Z"/><path class="v" d="M-1510.745,2043.985h-7.3l-22.551-57.764-4.76-12.192,6.345-.712,7.927-.887c.079.295,1.2,4.24,2.872,10.14C-1522.6,2002.321-1510.745,2043.985-1510.745,2043.985Z"/><path class="w" d="M-1515.9,2043.985h-2.148l-22.551-57.764-4.76-12.192,6.345-.712C-1534.992,1985.927-1520.731,2029.29-1515.9,2043.985Z"/><path class="w" d="M-1528.212,1982.57q-6.33,2.108-12.384,3.651l-4.76-12.192,14.272-1.6C-1531.005,1972.725-1529.887,1976.665-1528.212,1982.57Z"/><path class="x" d="M-1509.717,1913.568a90.643,90.643,0,0,1-2.265,10.5c-3.535,12.608-5.228,25.154-19,33.417-2.65,1.59-6.1,2.712-8.782,4.222a74.146,74.146,0,0,1-16.822,6.745c-17.509,4.8-37.176,6.894-54.839,1.781a35.684,35.684,0,0,1-13.914-7.851c-5.71-5.1-10.095-11.824-13.376-18.867a101.841,101.841,0,0,1-3.886-9.688c-.95-2.73-1.814-5.5-2.632-8.278-.8-2.713-1.554-5.441-2.3-8.169-3.384-12.3-6.735-24.865-6.2-37.623a57.113,57.113,0,0,1,31.053-48.731c8.25-4.187,17.5-6.245,26.612-7.4,9.923-1.252,20.141-2.079,30.127-1.25a58.909,58.909,0,0,1,19.678,5.214,64.073,64.073,0,0,1,22.231,16.994c9.748,11.6,13.688,28.281,15.056,43.073A106.4,106.4,0,0,1-1509.717,1913.568Z"/><path class="y" d="M-1510.8,1923.864c-.688-9.461-8.762-95.509-73.986-86.007-69.007,10.051-56.584,90.418-56.584,90.418l-3.794-2.932c-.806-2.708-1.568-5.432-2.325-8.153-3.411-12.279-6.791-24.816-6.256-37.549a56.963,56.963,0,0,1,31.322-48.633c8.319-4.178,17.644-6.233,26.832-7.381,10.006-1.248,20.309-2.076,30.38-1.247a59.865,59.865,0,0,1,19.841,5.2,64.52,64.52,0,0,1,22.417,16.96c9.829,11.578,13.8,28.227,15.182,42.988A100.857,100.857,0,0,1-1510.8,1923.864Z"/><path class="z" d="M-1509.717,1913.568a90.643,90.643,0,0,1-2.265,10.5c-3.535,12.608-3.431,23.651-13.6,31.925-2.4,1.951-11.5,4.2-14.185,5.714l-85.575.676c-5.71-5.1-10.095-11.824-13.376-18.867a101.906,101.906,0,0,1-3.886-9.688l.91-7.091s12.064,10.442,63.969,7.257,64.115-19.37,65.8-21.763C-1511.426,1911.514-1510.613,1912.222-1509.717,1913.568Z"/><path class="aa" d="M-1521.893,1946.534q-.531.835-1.084,1.648a48.931,48.931,0,0,1-8.008,9.3,52.632,52.632,0,0,1-13.554,8.259c-17.431,7.768-36.718,10.227-55.5,8.287a57.041,57.041,0,0,1-11.04-2.054,40.531,40.531,0,0,1-22.455-17.959,32.662,32.662,0,0,1-1.635-3.1q-.356-.756-.685-1.548v-.007c-.238-.583,14.044-5.792,57.153-5.638,41.324.152,52.575-.32,56.356,2.439A5.189,5.189,0,0,1-1521.893,1946.534Z"/><path class="ab" d="M-1522.341,1946.156a8.221,8.221,0,0,0-.638.721c-2.343,3.015-12.8,13.432-53.181,15.5s-54.743-8.8-55.18-7.92l-.426.844-3.4-4.393q-.355-.754-.685-1.547v-.008c-.238-.583,14.044-5.792,57.153-5.638C-1537.373,1943.869-1526.122,1943.4-1522.341,1946.156Z"/><path class="ac" d="M-1654.226,1955.306s-13.106-23.743-3.861-33.643,15.424-3.4,19.342,10.241,23.4,41.893,59.283,40.13c44.309-2.175,58.544-20.67,65.086-42.242s7.943-25.362,15.979-25.362,14.365,25.438-10.653,54.8-78.12,28.818-94.378,25.857S-1640.732,1977.024-1654.226,1955.306Z"/><path class="ad" d="M-1592.364,2014.576c-.045.162-.219.249-.372.313a30.888,30.888,0,0,1-4.018,1.252q-2.626.688-5.246,1.38c-5.425,1.425-10.854,2.854-16.358,3.922a10.131,10.131,0,0,1-3.3.26,2.214,2.214,0,0,1-1.368-.6,2.466,2.466,0,0,1-.484-1,10.55,10.55,0,0,1-.224-4.737,11.461,11.461,0,0,1,4.347-7.185,12.236,12.236,0,0,1,12.694-.909,5.276,5.276,0,0,0,1.5.632,1.4,1.4,0,0,0,1.445-.54,1.86,1.86,0,0,0,.191-.86,11.848,11.848,0,0,0-1.248-5.86l6.294-.528q2.37,4.752,4.374,9.676.9,2.211,1.716,4.448A.567.567,0,0,1-1592.364,2014.576Z"/><path class="ad" d="M-1525.973,2020.095a2.52,2.52,0,0,1-.486,1,2.22,2.22,0,0,1-1.368.6,10.12,10.12,0,0,1-3.3-.26c-5.5-1.068-10.933-2.5-16.356-3.922l-5.246-1.38a31.006,31.006,0,0,1-4.02-1.252c-.155-.063-.327-.15-.372-.312a.571.571,0,0,1,.049-.345q.807-2.2,1.691-4.383,2.01-4.953,4.4-9.741l6.3.528a11.862,11.862,0,0,0-1.252,5.86,1.845,1.845,0,0,0,.2.86,1.388,1.388,0,0,0,1.443.54,5.19,5.19,0,0,0,1.5-.632,12.245,12.245,0,0,1,12.7.909,11.526,11.526,0,0,1,4.491,8.377A10.441,10.441,0,0,1-1525.973,2020.095Z"/><path class="ae" d="M-1533.9,1907.232c.04,1.4-1.245,2.482-2.533,3.033-3.216,1.371-6.872.82-10.355.585-11.793-.788-23.479,2.37-35.281,2.917-2.244.1-4.491.115-6.737.123l-30.448.126a4.852,4.852,0,0,1-3.34-.815c-.878-.782-.791-2.583.359-2.827l-1.7-1.4c6.12-8.368,17.59-13.162,26.612-18.264,1.7-.961,3.405-1.926,5.17-2.762.255-.121.513-.238.77-.354.562-.251,1.127-.486,1.7-.7a43.992,43.992,0,0,1,23.232-1.853c1.469.248,2.927.56,4.365.929.621.157,1.238.329,1.852.506,10.507,3.062,20.546,9.342,25.729,18.983A4.1,4.1,0,0,1-1533.9,1907.232Z"/><path class="af" d="M-1566.445,1885.041c-.215.524-3.282,7.671-11.172,7.983a14.3,14.3,0,0,1-12.06-6.13A43.992,43.992,0,0,1-1566.445,1885.041Z"/><path class="ag" d="M-1570.1,1884.848a8.136,8.136,0,0,1-7.927,6.245c-6.653.125-8.736-4.922-8.736-4.922l-.363-2.474h0l-.522-3.544,15.274-3.523,1.434-.332.09.914.466,4.732Z"/><path class="ah" d="M-1527.051,1956.782a12.181,12.181,0,0,0-.578-3.507,12.634,12.634,0,0,0-2.014-3.571c-3.255-4.215-8.028-6.973-12.861-9.215a55.317,55.317,0,0,0-8.838-3.326h0a34.432,34.432,0,0,0-4.193-.856c-5.38-.737-10.832-.029-16.264.135l.031-.132c-.992.092-1.982.137-2.974.155-.992-.018-1.982-.063-2.97-.155l.031.132c-5.434-.164-10.886-.873-16.266-.135a35.915,35.915,0,0,0-6.2,1.454,60.607,60.607,0,0,0-6.831,2.729c-4.831,2.242-9.6,5-12.859,9.215a12.451,12.451,0,0,0-2.014,3.571,13.608,13.608,0,0,0-.589,4.616,29.161,29.161,0,0,0,.255,3.394c.64,4.908,2.37,9.677,4.083,14.355.181.493.379,1.006.591,1.532,4.117,10.268,13.666,26.457,13.666,26.457,1.113.4,3.642-.381,5.262-.97.867-.316,1.478-.576,1.478-.576s-.482-4.029-.658-5.833q-.581-6.081-1.7-12.093c-.708-3.8-1.581-7.609-1.48-11.47a9.175,9.175,0,0,1,1.248-4.894c1.474-2.213,4.243-3.111,6.827-3.747,2.706-.668,5.448-1.218,8.173-1.824a45.767,45.767,0,0,1,19.91,0c2.722.607,5.467,1.156,8.171,1.824,2.583.636,5.355,1.534,6.827,3.747a9.2,9.2,0,0,1,1.252,4.894c.1,3.861-.773,7.671-1.481,11.47q-1.122,6-1.7,12.093c-.173,1.8-.654,5.833-.654,5.833s1.024.439,2.307.865c1.557.518,3.494,1.017,4.431.681,0,0,10.554-17.892,14.255-27.989.536-1.463,1.073-2.934,1.579-4.417a43.757,43.757,0,0,0,2.76-13.332C-1527.037,1957.522-1527.039,1957.15-1527.051,1956.782Z"/><path class="ai" d="M-1551.342,1937.161h0s-5.177,7.074-22.565,8.261c-14.721,1-23.8-5.615-26.24-7.665a35.915,35.915,0,0,1,6.2-1.454c5.38-.737,10.832-.029,16.266.135l-.031-.132c.988.092,1.978.137,2.972.155.992-.018,1.982-.062,2.972-.155l-.031.132c5.432-.164,10.884-.873,16.264-.135A34.231,34.231,0,0,1-1551.342,1937.161Z"/><path class="ae" d="M-1550.463,1909.49c-.732,5.582-1.31,9.107-1.919,13.078-.293,1.891-.591,3.889-.92,6.256-.116.824-.233,1.694-.354,2.621a9.459,9.459,0,0,1-1.086,3.859,7.531,7.531,0,0,1-2.766,2.394c-4.842,2.739-10.621,3.14-16.181,3.31-7.764.24-16,.025-22.585-4.1a8.6,8.6,0,0,1-2.572-2.262,10.731,10.731,0,0,1-1.42-3.944c-.125-.576-.258-1.2-.4-1.877-.385-1.837-.824-3.991-1.279-6.256-1.089-5.411-2.273-11.441-3.044-15.2Z"/><path class="aj" d="M-1587.805,1902.889a39.8,39.8,0,0,1-9.949-10.178,12.609,12.609,0,0,1-1.8-3.516c-.316-1.1-.251-2.526.741-3.1a2.133,2.133,0,0,1,2.123.154,6.293,6.293,0,0,1,1.57,1.573q5.665,7.236,11.128,14.626Z"/><path class="ag" d="M-1574.132,1907.942l-6.522.177a58.26,58.26,0,0,0-6.6.435,28.884,28.884,0,0,0-6.662,1.789,1.077,1.077,0,0,0-.676.529.924.924,0,0,0,.334.914,4.889,4.889,0,0,0,2.816,1.156,29.405,29.405,0,0,0,7.784-.166c3.906-.471,7.786-1.127,11.665-1.781Z"/><path class="ak" d="M-1592.285,1909.119q1.19-2.8,2.61-5.492a4.37,4.37,0,0,1,1.281-1.671,3.836,3.836,0,0,1,1.705-.533,13.5,13.5,0,0,1,4.514.2c1.077.231,2.273.748,2.551,1.812a2.256,2.256,0,0,1-.453,1.859,6.189,6.189,0,0,1-1.474,1.308,2.418,2.418,0,0,1,3.164,1.293,2.418,2.418,0,0,1-.83,2.907c.918-.112,2.067.338,2.128,1.261a1.474,1.474,0,0,1-.719,1.261,3.892,3.892,0,0,1-1.429.49,24.573,24.573,0,0,1-13.245-1.151Z"/><path class="t" d="M-1535.786,1903.211c-10-7.169-31.462.565-40.6,4.732-.233,2.656,2.269,5.6,2.506,6.078,0,0,22.856-.388,30.951-.627S-1528.265,1908.6-1535.786,1903.211Z"/><path class="t" d="M-1624.456,1909.49a5.765,5.765,0,0,1,.491-.937,14.378,14.378,0,0,1,7.071-4.617c12.293-2.181,21.872-.394,26.216,1.669.529.251.62,6.258.75,7.262a.83.83,0,0,1-.449,1.082.816.816,0,0,1-.434.054,145.551,145.551,0,0,1-28.567.61,8.88,8.88,0,0,1-4.117-1.021C-1625.025,1912.628-1625.061,1910.95-1624.456,1909.49Z"/><path class="al" d="M-1570.383,1881.946c-1.87,1.691-4.327,3.441-6.7,3.7-4.7.509-9.914-1.884-10.046-1.944h0l-.522-3.544,15.274-3.523,1.525.582Z"/><path class="ak" d="M-1545.368,1843.744l-.013.54a26.431,26.431,0,0,1-1.453,8.635c-1.4,3.671-3.982,6.744-6.52,9.739-4.444,5.239-8.91,10.5-14.1,15-2.737,2.375-5.8,4.587-9.354,5.273a22.026,22.026,0,0,1-8.74-.549,104.482,104.482,0,0,1-25.047-8.812,22.1,22.1,0,0,1-7.064-4.953c-1.955-2.278-3-5.177-3.954-8.023q-.366-1.086-.714-2.18a214.029,214.029,0,0,1-9.137-43.409l-.034-1.261c-2.4-6.271,1.906-13.1,6.791-17.709a58.134,58.134,0,0,1,41.928-15.6c6.7.294,13.5,1.843,19.035,5.622,6.193,4.226,10.344,10.942,12.8,18.025s3.382,14.591,4.281,22.034A126.507,126.507,0,0,1-1545.368,1843.744Z"/><path class="am" d="M-1545.381,1844.284a26.434,26.434,0,0,1-1.456,8.635c-1.4,3.671-3.982,6.744-6.52,9.739-4.444,5.239-8.91,10.5-14.1,15-2.737,2.374-5.8,4.587-9.354,5.273a22.026,22.026,0,0,1-8.74-.549,104.486,104.486,0,0,1-25.047-8.812,22.1,22.1,0,0,1-7.064-4.953c-1.955-2.278-3-5.177-3.954-8.023q-.366-1.086-.714-2.18c.426.17,1.742-.659,2.381.07,7.513,8.547,27.618,18.275,42.2,16.25s30.369-30.57,30.369-30.57Z"/><path class="al" d="M-1624.805,1836.619l.874,3.568s6.008-14.3,2.972-24.422c0,0,8.908,6.073,23.487,4.859s21.055-7.9,21.055-7.9-4.858-2.025-6.883-4.657c0,0,13.16,1.216,19.032-5.264,0,0,0,7.9,8.1,14.983s9.44,10.158,9.44,10.158l-4.61-24.966-15.36-17.178-23.284,5.062-30.572,12.756-7.694,1.619s-1.416,8.3-1.214,9.922S-1624.805,1836.619-1624.805,1836.619Z"/><path class="t" d="M-1569.476,1846.62a7.664,7.664,0,0,1-2.89-5.9,8.874,8.874,0,0,1,2.468-6.149,8.614,8.614,0,0,1,5.987-2.748,7.132,7.132,0,0,1,5.86,2.824,9.871,9.871,0,0,1,1,1.841,9.384,9.384,0,0,1,.918,3.823,8.31,8.31,0,0,1-2.587,5.486,7.362,7.362,0,0,1-4.113,2.33,10.193,10.193,0,0,1-4.984-1.012,4.317,4.317,0,0,1-2.634-1.935Z"/><path class="an" d="M-1625.726,1846.193q-2.532-3.885-4.926-7.853l-.52-.865c-4.384-7.342-8.4-15.227-8.735-23.747a24.474,24.474,0,0,1,2.359-11.4,21.45,21.45,0,0,1,1.839-3.136,16.538,16.538,0,0,1,8.72-6.5l.128.341c-1.366,5.88-.336,11.8,1.055,17.749a127.291,127.291,0,0,1,2.984,14.239A43.439,43.439,0,0,1-1625.726,1846.193Z"/><path class="ak" d="M-1537.566,1842.78a15.289,15.289,0,0,1-9.813,1.384h0a18.145,18.145,0,0,1-2.433-.6l1.315-12.1c1.133-4.06,4.946-7.506,9.157-7.289a8.08,8.08,0,0,1,5.447,2.688,9.224,9.224,0,0,1,2.471,5.671A11.4,11.4,0,0,1-1537.566,1842.78Z"/><path class="an" d="M-1542.635,1817.639a45.491,45.491,0,0,1-3.617,11.9c-1.25-5.214-5.232-9.242-8.312-13.63a44.3,44.3,0,0,1-7.652-19.67l8.368-10.611.706-.894c.222.034.443.079.661.135,3.422.887,5.651,4.4,7.026,7.745A46.665,46.665,0,0,1-1542.635,1817.639Z"/><path class="ao" d="M-1542.635,1817.64c-.524-8.364-2.244-21.568-7.866-18.477-5.544,3.047-6.534,9.134-6.606,12.669a44.4,44.4,0,0,1-5.109-15.587l8.368-10.611,1.368-.759c3.422.887,5.651,4.4,7.026,7.745A46.665,46.665,0,0,1-1542.635,1817.64Z"/><path class="an" d="M-1608.47,1826.725a.612.612,0,0,0-.621-.6h-.035c-2.032.143-3.73,1.467-5.266,2.7a12.68,12.68,0,0,0-3.9,4.757c-.5,1.177-1.015,3.243.69,3.677,1.913.487,3.756-1.474,4.946-2.669a23.579,23.579,0,0,0,4.375-5.392A2.133,2.133,0,0,0-1608.47,1826.725Z"/><path class="an" d="M-1559.277,1821.361c-1.167-1.778-4.16-2.417-6.108-2.607a13.112,13.112,0,0,0-7.217,1.189,4.61,4.61,0,0,0-.9.6,2.409,2.409,0,0,0-1.012.965c-1.026,2.146,3.409,2.787,4.536,2.957,2.609.392,5.47,1.05,8.106.634C-1560.137,1824.823-1558.007,1823.3-1559.277,1821.361Z"/><path class="ap" d="M-1568.557,1845.958a5.739,5.739,0,0,1,.582-7.1,6.053,6.053,0,0,1,6.975-.9c2.5,1.525,3.532,5.2,1.358,7.409-1.839,1.863-5.468,1.958-7.68.715-5.678-3.192,3.456-11.533,6.713-6.169,1.489,2.453.123,4.728-2.582,5.011-1.189.125-2.746.072-3.642-.822-1.093-1.1-.206-2.676.759-3.532.985-.874,2.843-1.377,3.732-.074a1.923,1.923,0,0,1-.58,2.657,1.913,1.913,0,0,1-.592.252c-1.25.28-3.418-1.115-1.521-2.078.5-.255,2.124-.076,1.532.844-.15.233-.674.143-.858.15-.63.027.282-.36.332.495l1.732-1-.2-.224c-.52-1.281-2.574-.8-2.134.587a2.713,2.713,0,0,0,.941,1.445c.69.551,2.059.289,1.965-.813a2.257,2.257,0,0,0-1.675-2.22,1.971,1.971,0,0,0-2.278,1.605,1.64,1.64,0,0,0-.022.171c-.155,2.6,4.169,2.2,3.7-.541-.462-2.7-4.7-2.224-4.968.344-.276,2.6,3.653,3.308,5.134,1.718,1.779-1.911.2-4.9-2.238-5.062-2.473-.166-5.131,2.571-3.711,5.011a4.537,4.537,0,0,0,6.3,1.227c.071-.048.14-.1.208-.149a4.335,4.335,0,0,0,.592-6.1c-.038-.046-.077-.092-.117-.137-4.225-4.347-12.106,3.132-7.661,7.342,4.039,3.824,12.521.163,10.362-5.754-2.092-5.732-9.865-4.458-12.239.381a5.349,5.349,0,0,0,1.382,6.664c2.184,1.62,5.45,1.57,7.9.632,2.535-.974,4.67-3.376,4.206-6.243a6.914,6.914,0,0,0-6.1-5.821,7.239,7.239,0,0,0-6.892,3.45c-1.216,2.222-1,5.23,1.138,6.774.092.067.2-.06.15-.148Z"/><path class="t" d="M-1597.852,1850.59a7.665,7.665,0,0,0-.929-6.5,8.89,8.89,0,0,0-5.5-3.7,8.63,8.63,0,0,0-6.5,1.1,7.135,7.135,0,0,0-3.25,5.634,9.862,9.862,0,0,0,.208,2.085,9.3,9.3,0,0,0,1.393,3.676,8.3,8.3,0,0,0,5.224,3.082,7.354,7.354,0,0,0,4.711-.39,10.189,10.189,0,0,0,3.552-3.64,4.334,4.334,0,0,0,1.089-3.082Z"/><path class="t" d="M-1567.441,1844.391a2.183,2.183,0,0,0,.341,1.738,1.892,1.892,0,0,0,2.164,1.274,2.464,2.464,0,0,0,2.027-2.32C-1562.769,1842.45-1566.846,1841.744-1567.441,1844.391Z"/><path class="ap" d="M-1598.773,1850.584a5.1,5.1,0,0,0-2.18-5.8,6.951,6.951,0,0,0-7.1-.21,6.446,6.446,0,0,0-3.606,6.061c.085,2.638,1.274,5.01,3.958,5.765,4.516,1.268,11.762-3.01,9.753-8.3-1.879-4.95-10.088-5.136-12.508-.553a6.056,6.056,0,0,0,1.135,6.846c2.054,1.96,5.29,1.44,7.474-.013,2.213-1.471,3.936-4.388,2.244-6.9a6.232,6.232,0,0,0-7.246-1.854,4.253,4.253,0,0,0-2.337,5.54,4.252,4.252,0,0,0,5.539,2.336,4.248,4.248,0,0,0,1.267-.8c1.937-1.667,2.24-4.912-.417-6.01-2.388-.988-5.593.739-5.116,3.57.528,3.122,4.686,3.044,5.766.323,1.145-2.89-3.109-4.2-4.478-1.741a2.2,2.2,0,0,0,.836,3,2.152,2.152,0,0,0,.391.172,1.924,1.924,0,0,0,2.321-1.42,1.946,1.946,0,0,0,.053-.488,1.89,1.89,0,0,0-2.124-1.622,1.886,1.886,0,0,0-.551.161,2.135,2.135,0,0,0-.861,2.894,1.869,1.869,0,0,0,.124.2,1.166,1.166,0,0,0,1.607.373,1.17,1.17,0,0,0,.5-.648,2.792,2.792,0,0,0,0-1.752,1.108,1.108,0,0,0-1.381-.738,1.106,1.106,0,0,0-.753,1.325l-.092.553,2.1-.275-.717.108-.116-.885c-.02.13,1.454-.39.629.264-.271.215-.656.361-.885,0-.511-.809.742-1.4,1.368-1.353,2,.163.367,2.426-.7,2.672a1.953,1.953,0,0,1-2.294-1.539,1.976,1.976,0,0,1-.036-.342c.022-1.339,1.525-2.056,2.677-2.034,1.254.023,3.069.683,3.127,2.15.047,1.225-1.163,2.2-2.081,2.8a4.363,4.363,0,0,1-3.387.831,3.244,3.244,0,0,1-2.045-2.86c-.791-6.061,10.756-5.458,9.269.21-.609,2.325-3.317,4.229-5.611,4.525a4.506,4.506,0,0,1-3.185-.8,4.564,4.564,0,0,1-1.671-3.915,5.573,5.573,0,0,1,5.684-5.459h.021c3.143-.042,5.233,2.646,5.427,5.6a.109.109,0,0,0,.112.106.11.11,0,0,0,.1-.077Z"/><path class="t" d="M-1600.787,1849.893a2.2,2.2,0,0,1,.694,1.63,1.892,1.892,0,0,1-1.071,2.271,2.461,2.461,0,0,1-2.981-.777C-1605.742,1850.92-1602.769,1848.04-1600.787,1849.893Z"/><path class="aq" d="M-1571.3,1864.228a10,10,0,0,1-6.428,5.994,10.787,10.787,0,0,1-9.2-.983h0a18,18,0,0,1-5.226-4.9,17.565,17.565,0,0,1-1.248-1.942c.318-.107,14.922-.107,22.753-7.725a18.683,18.683,0,0,1,.358,3.317A16.067,16.067,0,0,1-1571.3,1864.228Z"/><path class="t" d="M-1570.293,1857.985a20.581,20.581,0,0,1-9.564,5.888,27.671,27.671,0,0,1-12.3.463,17.577,17.577,0,0,1-1.248-1.942c.318-.107,14.922-.107,22.753-7.725A18.582,18.582,0,0,1-1570.293,1857.985Z"/><path class="ar" d="M-1571.3,1864.228a10,10,0,0,1-6.428,5.994,10.787,10.787,0,0,1-9.2-.983h0a9.86,9.86,0,0,1,7.627-2.049S-1578.5,1864.582-1571.3,1864.228Z"/><path class="al" d="M-1541.97,1834.547c2.238-1.935,3.974-5.067,3.1-8.01a.183.183,0,0,0-.229-.121.181.181,0,0,0-.121.121c-.643,3-1.456,5.7-4.135,7.521a.637.637,0,0,0-.21.875.635.635,0,0,0,.21.209,6.917,6.917,0,0,1,2.376,2.39,7.454,7.454,0,0,0,1.4,2.265.3.3,0,0,0,.424,0,.294.294,0,0,0,.046-.06C-1538.268,1837.826-1540.313,1835.714-1541.97,1834.547Z"/><path class="as" d="M-1582.484,1874.014a7.022,7.022,0,0,0,6.384.831c1.111-.434,3.647-2.078,3.077-3.546a.174.174,0,0,0-.211-.121c-.578.226-.658.632-1.075,1.113a5.605,5.605,0,0,1-2.267,1.541,7.9,7.9,0,0,1-5.649-.43c-.363-.15-.565.419-.258.612Z"/><path class="an" d="M-1547.509,1788.4c-4.02,4.323-8.78,8.193-14.429,9.906s-12.315.921-16.616-3.12a15.506,15.506,0,0,0,7.985,8.68,18.615,18.615,0,0,1-21.151-2.131,18.778,18.778,0,0,0,10.814,11.355,35.387,35.387,0,0,1-29.981,2.487c-5.327-2.027-10.655-5.43-16.255-4.374l-2.993-3.848-5.593-7.186a30.276,30.276,0,0,1-.71-4.728c-1.256-18.213,15.97-27.947,28.458-30.3,22.937-4.318,31.061.4,38.259-2.556a40.375,40.375,0,0,0,6.158-3.16,30.941,30.941,0,0,0,11.191-11.715,28.327,28.327,0,0,1-11.726,30.346,28.227,28.227,0,0,0,17.3-4.153,27.521,27.521,0,0,0,8.61-8.276C-1536.956,1774.032-1541.727,1782.192-1547.509,1788.4Z"/><path class="at" d="M-1625.729,1846.193q-2.532-3.885-4.926-7.853l-.52-.865c9.239-10.877-6.375-35.146-6.375-35.146a21.479,21.479,0,0,1,1.839-3.136,45.228,45.228,0,0,1,9.9,11.592,127.28,127.28,0,0,1,2.984,14.239A43.426,43.426,0,0,1-1625.729,1846.193Z"/><path class="ak" d="M-1618.34,1856.166c-.509.755-1.044,1.527-1.619,2.265-1.633,2.1-3.573,3.949-6.133,4.393-3.573.62-8.332-.97-10.534-3.9a9.532,9.532,0,0,1-1.756-5.5,16.5,16.5,0,0,1,.166-2.766,11.809,11.809,0,0,1,1.181-3.8c2.683-5.055,8.18-4.778,13.1-4.139Z"/><path class="al" d="M-1626.718,1852.756c-2.816-.882-4.467-3.29-5.445-5.942a.274.274,0,0,0-.344-.178.273.273,0,0,0-.191.25c-.1,3.082,2.152,5.57,4.832,6.784a19.351,19.351,0,0,0-1.516,2.679,6.257,6.257,0,0,0-.874,3.234.778.778,0,0,0,.8.752.78.78,0,0,0,.632-.364,13.008,13.008,0,0,0,.963-2.981,15.562,15.562,0,0,1,1.522-3.292.649.649,0,0,0-.246-.884A.718.718,0,0,0-1626.718,1852.756Z"/><path class="at" d="M-1547.508,1788.4c-4.02,4.323-8.78,8.193-14.429,9.905s-12.315.921-16.616-3.12a15.5,15.5,0,0,0,7.985,8.68,18.613,18.613,0,0,1-21.151-2.13,18.774,18.774,0,0,0,10.814,11.354,35.384,35.384,0,0,1-29.981,2.488c-4.885-1.859-9.768-4.872-14.86-4.547-.02-.083-.038-.164-.058-.248a45.867,45.867,0,0,0-4.24-5.96,123.755,123.755,0,0,1,24.272,5.877c11.338,4.253,12.349-5.062,3.441-12.956s10.933.2,16.8,0,1.214-9.517-3.239-11.946,19.639,11.135,32.6,1.62c5.9-4.336,8.4-9.342,9.374-13.509a27.52,27.52,0,0,0,8.61-8.276C-1536.955,1774.032-1541.726,1782.192-1547.508,1788.4Z"/><g class="au"><path class="an" d="M-1563.563,1759.433c-.047.251-.1.5-.161.748a19.834,19.834,0,0,1-13.079,14.049c-5.015,1.583-10.487,1.084-15.536,2.547a6.28,6.28,0,0,0-3.261,1.855c-1.225,1.53-1.095,3.846-2.376,5.333-1.2,1.393-3.3,1.622-5.114,1.284s-3.517-1.125-5.338-1.4-3.927.094-4.991,1.6c-1.705,2.4.246,5.772-.4,8.646-.556,2.477-2.961,4.115-5.373,4.914-5.826,1.932-12.3.186-17.247-3.559-1.256-18.213,15.97-27.947,28.458-30.3,22.937-4.318,31.061.4,38.259-2.556A40.3,40.3,0,0,0-1563.563,1759.433Z"/></g><g class="av"><path class="as" d="M-1579.372,1846.439a5,5,0,0,0-3.656-1.678,8.667,8.667,0,0,0-3.994.941c-1.707.809-3.317,2.029-3.557,4.038a1.994,1.994,0,0,0,.173,1.221,1.162,1.162,0,0,0,1.5.533,2.521,2.521,0,0,0,.652-.643,6.386,6.386,0,0,1,4.2-1.76,13.875,13.875,0,0,0,4.551-.9,1.2,1.2,0,0,0,.354-.237C-1578.772,1847.545-1579.02,1846.865-1579.372,1846.439Z"/></g><path class="as" d="M-1579.116,1850.249c-.938-1.481-4.157-.443-5.488.023-1.79.625-3.725,1.613-4.478,3.447-.031.072.058.152.128.128,1.727-.576,3.2-1.678,4.981-2.17a10.976,10.976,0,0,1,3.022-.394c.762.009,1.209.169,1.758-.427A.516.516,0,0,0-1579.116,1850.249Z"/><path class="aw" d="M-1619.958,1858.431c-1.633,2.1-3.573,3.949-6.133,4.393-3.573.62-8.332-.97-10.534-3.9a9.532,9.532,0,0,1-1.756-5.5,16.511,16.511,0,0,1,.166-2.766C-1637.453,1852.716-1633.579,1860.68-1619.958,1858.431Z"/><path class="aw" d="M-1537.566,1842.781a15.29,15.29,0,0,1-9.813,1.384c14.055-3.591,13.484-17.3,13.484-17.3a9.223,9.223,0,0,1,2.471,5.671A11.4,11.4,0,0,1-1537.566,1842.781Z"/><path class="af" d="M-1619.19,1904.9a26.4,26.4,0,0,0,2.885-.625,33.166,33.166,0,0,1,3.315-.378c2.253-.181,4.522-.388,6.782-.416a52.5,52.5,0,0,1,6.644.34c1.147.13,2.294.287,3.431.5a18.366,18.366,0,0,0,3.077.576.165.165,0,0,0,.16-.17.162.162,0,0,0-.077-.135c-1.761-1.075-4.446-1.424-6.456-1.769a36.358,36.358,0,0,0-7.033-.536,58.776,58.776,0,0,0-6.908.63c-1.816.257-4.46.567-5.853,1.9a.049.049,0,0,0,0,.07.053.053,0,0,0,.034.015Z"/><path class="af" d="M-1575.32,1907.585c3.082-.611,6.077-2.166,9.027-3.232a70.284,70.284,0,0,1,8.946-2.657,46.307,46.307,0,0,1,8.539-1.053,32.358,32.358,0,0,1,8.9.609.028.028,0,0,0,.035-.018.03.03,0,0,0-.019-.036h0a23.653,23.653,0,0,0-8.229-1.644,41.29,41.29,0,0,0-8.886.964,59.334,59.334,0,0,0-9.264,2.974c-3,1.19-6.343,2.3-9.076,4.03a.035.035,0,0,0-.009.05.038.038,0,0,0,.036.015Z"/><path class="ax" d="M-1592.364,2014.576c-.045.162-.219.249-.372.313a30.888,30.888,0,0,1-4.018,1.252q-2.626.688-5.246,1.38c-5.425,1.425-10.854,2.854-16.358,3.922a10.131,10.131,0,0,1-3.3.26,2.214,2.214,0,0,1-1.368-.6,2.466,2.466,0,0,1-.484-1,10.553,10.553,0,0,1-.224-4.738c2.22,1.133,9.394,3.859,21.021-.422a22.951,22.951,0,0,0,8.581-5.151q.9,2.211,1.716,4.448A.574.574,0,0,1-1592.364,2014.576Z"/><path class="ax" d="M-1525.973,2020.095a2.52,2.52,0,0,1-.486,1,2.22,2.22,0,0,1-1.368.6,10.12,10.12,0,0,1-3.3-.26c-5.5-1.068-10.933-2.5-16.356-3.922l-5.246-1.38a30.856,30.856,0,0,1-4.02-1.252c-.155-.063-.327-.15-.372-.312a.571.571,0,0,1,.049-.345q.807-2.2,1.691-4.383a33.152,33.152,0,0,0,15.962,7.161,37.62,37.62,0,0,0,13.813-.461A10.445,10.445,0,0,1-1525.973,2020.095Z"/><path class="ai" d="M-1550.068,2002.943c-1.283-.426-2.307-.865-2.307-.865s.481-4.029.654-5.833q.579-6.081,1.7-12.093c.708-3.8,1.583-7.609,1.481-11.47a9.2,9.2,0,0,0-1.252-4.894c-1.472-2.213-4.244-3.111-6.827-3.747-2.7-.668-5.449-1.218-8.171-1.825a45.77,45.77,0,0,0-19.91,0c-2.724.607-5.467,1.156-8.173,1.825-2.583.636-5.353,1.534-6.827,3.747a9.175,9.175,0,0,0-1.248,4.894c-.1,3.861.771,7.671,1.48,11.47q1.119,6,1.7,12.093c.175,1.8.658,5.833.658,5.833s-.611.26-1.478.576c0,0-12.92-31.5-6.406-38.311s22.545-9.967,31.434-9.884,23.257,2.82,28.2,8.18S-1551,1997.19-1550.068,2002.943Z"/><g class="ay"><path class="az" d="M-1527.042,1957.891a43.757,43.757,0,0,1-2.76,13.332,10.149,10.149,0,0,1-.849-.62,10.087,10.087,0,0,1-3.516-5.223,2.293,2.293,0,0,1-.061-1.174c.208-.73.97-1.124,1.633-1.492a13.669,13.669,0,0,0,5.544-5.933C-1527.038,1957.151-1527.036,1957.523-1527.042,1957.891Z"/></g><g class="ay"><path class="az" d="M-1613.346,1971c-.219,1.731-1.617,3.028-2.764,4.343a18.613,18.613,0,0,0-1.4,1.828c-.211-.526-.41-1.039-.591-1.531-1.713-4.677-3.443-9.446-4.083-14.355a23.61,23.61,0,0,0,2.5,2.925c1.731,1.737,3.658,3.268,5.528,4.857a2.859,2.859,0,0,1,.593.625A2.03,2.03,0,0,1-1613.346,1971Z"/></g><path class="ba" d="M-1552.381,1922.568c-.293,1.891-.591,3.889-.92,6.256l-7.191,1.78a69.867,69.867,0,0,1-35.036-.387l-5.138-1.391c-.385-1.837-.824-3.991-1.279-6.256Z"/><path class="bb" d="M-1651.173,1929.261l-1.169,2.585-3.123,6.9-47.617,105.239h-8.993s27.94-75.058,38.949-105.187c2.634-7.208,4.3-11.847,4.379-12.27Z"/><path class="w" d="M-1668.747,1926.528l17.574,2.733-4.292,9.488c-7.2.009-13.217.025-17.661.049C-1670.492,1931.59-1668.826,1926.951-1668.747,1926.528Z"/><path class="bb" d="M-1446.32,2043.985h-8.991l-47.577-105.147-4.334-9.576,2.815-.437,14.759-2.3c.081.424,1.756,5.089,4.4,12.337C-1474.22,1969.037-1446.32,2043.985-1446.32,2043.985Z"/><path class="w" d="M-1485.245,1938.865c-5.253-.007-11.193-.016-17.644-.027l-4.334-9.576,17.574-2.732C-1489.567,1926.953-1487.892,1931.617-1485.245,1938.865Z"/><path class="w" d="M-1452.372,2043.984h-2.94l-47.577-105.146-4.333-9.577,2.814-.437,6.553,3.023Z"/><rect class="v" width="39.998" height="7.143" transform="translate(-1678.743 1924.704)"/><rect class="v" width="39.998" height="7.143" transform="translate(-1519.65 1924.704)"/><rect class="bc" width="323.598" height="7.999" transform="translate(-1741.26 1916.704)"/><rect class="bb" width="323.598" height="6.177" transform="translate(-1741.26 1918.526)"/><rect class="w" width="39.998" height="7.143" transform="translate(-1678.743 1924.704)"/><rect class="w" width="39.998" height="7.143" transform="translate(-1519.65 1924.704)"/><path class="w" d="M-1652.343,1931.846l-3.122,6.9-47.617,105.237h-4.258l45.192-112.137Z"/><path class="bd" d="M-1412.017,1890.143v13.275h-53.093v-11.39Z"/><path d="M-1412.016,1895.844v7.575h-53.094V1896.4c1.118,1.321,3.535,2.78,8.753,2.78C-1448.344,1899.181-1423.251,1900.041-1412.016,1895.844Z"/><path class="d" d="M-1409.873,1901.072v15.635h-46.9l-.551-6.153-.64-7.133Z"/><path class="u" d="M-1409.869,1908.887v7.817h-46.9l-.549-6.153c.047.079,1.689,2.6,8.865,3C-1441.169,1913.96-1411.375,1914.746-1409.869,1908.887Z"/><path class="be" d="M-1538.616,1912.635l-.314.919-.62,1.823-35.67.847-35.672-.847-.932-2.742a73.473,73.473,0,0,0,16.508-2.153c8.133-2.153,16.506-2.392,20.1,1.2,3.588-3.588,11.961-3.349,20.1-1.2A73.445,73.445,0,0,0-1538.616,1912.635Z"/><path class="aj" d="M-1539.095,1916.7h-72.25v-1.675h72.25Z"/><path class="bf" d="M-1538.616,1912.635l-.314.919c-4.619.2-12.366-.679-20.739-2.833s-15.312,1.913-15.551,1.913v-.957c3.588-3.588,11.961-3.349,20.1-1.2A73.485,73.485,0,0,0-1538.616,1912.635Z"/><path class="bf" d="M-1611.824,1912.635l.313.919c4.621.2,12.367-.679,20.741-2.833s15.31,1.913,15.551,1.913v-.957c-3.59-3.588-11.963-3.349-20.1-1.2A73.517,73.517,0,0,1-1611.824,1912.635Z"/><path class="bg" d="M-1487.242,1901.108a1.414,1.414,0,0,1-.468.081,1.361,1.361,0,0,1-1.281-.894l-2.916-7.965h0l-1.512-4.133-5.345-14.6a1.362,1.362,0,0,1,.858-1.725,1.364,1.364,0,0,1,1.7.786l5.691,15.536,1.135,3.093v.005l.428,1.167.766,2.094,1.763,4.8a1.365,1.365,0,0,1-.808,1.752Z"/><path class="bh" d="M-1487.709,1893.261l.1,1.358c-.045,0-.1.009-.141.009a1.2,1.2,0,0,1-.441-.072c-.739-.246-.876-1.136-.966-1.767l-.051-.327-.177-1.167v-.005l-.468-3.093-1.581-10.487a1.364,1.364,0,0,1,1.15-1.55,1.366,1.366,0,0,1,1.55,1.15c.444,2.974,1.122,7.466,1.635,10.89.285,1.893.526,3.465.645,4.265.054.331.081.531.09.571l-1.344.219Z"/><path class="bi" d="M-1474.63,1868.014l-3.356,20.182-.714,4.265-.121.744a1.361,1.361,0,0,1-1.341,1.134,1.1,1.1,0,0,1-.228-.018,1.355,1.355,0,0,1-1.118-1.556l0-.01.051-.294.708-4.265,3.432-20.632a1.361,1.361,0,0,1,1.567-1.117,1.361,1.361,0,0,1,1.118,1.567Z"/><path class="bj" d="M-1486.456,1892.459h-4.991l-.459-.132h-.005l-1.512-4.133h2.9l1.135,3.093-.468-3.093h2.753C-1486.816,1890.09-1486.575,1891.659-1486.456,1892.459Z"/><path class="bj" d="M-1477.987,1888.2l-.713,4.264h-2.757l.709-4.264Z"/><rect class="bk" width="18.62" height="26.536" transform="translate(-1492.987 1890.168)"/><g class="bl"><path class="bk" d="M-1474.367,1906.748v9.956h-18.623v-9.183a15.51,15.51,0,0,0,9.309,3.291A12.447,12.447,0,0,0-1474.367,1906.748Z"/></g><g class="bm"><path class="t" d="M-1474.367,1890.168v4.124a16.462,16.462,0,0,1-9.311,2.637,18.913,18.913,0,0,1-9.309-2.37v-4.392Z"/></g><path class="bn" d="M-1676.511,1910.357l-59.382,1.694-4.048-1.694-18.566-43.161v-.006h66.184l13.067,35.67Z"/><rect class="bo" width="83.77" height="6.346" transform="translate(-1739.94 1910.356)"/><path class="bp" d="M-1656.17,1910.356v6.346h-83.77v-6.346l-18.566-43.16c.318.565,21.442,37.675,78.665,35.682l.585-.02,2.746,7.5Z"/><rect class="bq" width="56.172" height="40.123" rx="4.049" transform="translate(-1521.19 1711.451)"/><path class="t" d="M-1503.208,1745.468a3.535,3.535,0,0,1-1.2-3.08v-6.911a3.44,3.44,0,0,0-.164-1.148,1.858,1.858,0,0,0-.816-.867,5.817,5.817,0,0,0-2.032-.638,1.319,1.319,0,0,1-1.157-1.464,1.321,1.321,0,0,1,1.157-1.158,5.673,5.673,0,0,0,2.032-.64,1.841,1.841,0,0,0,.816-.865,3.433,3.433,0,0,0,.164-1.148v-6.912a3.533,3.533,0,0,1,1.2-3.078,5.786,5.786,0,0,1,3.387-.854h.4a1.147,1.147,0,0,1,1.147,1.148,1.146,1.146,0,0,1-1.147,1.147h-.49a2.2,2.2,0,0,0-1.591.394,1.438,1.438,0,0,0-.342.984v7.271a3.921,3.921,0,0,1-2.949,3.868,3.916,3.916,0,0,1,2.949,3.864v7.275a1.439,1.439,0,0,0,.342.981,2.2,2.2,0,0,0,1.591.393h.49a1.147,1.147,0,0,1,1.147,1.148,1.146,1.146,0,0,1-1.147,1.147h-.4A5.768,5.768,0,0,1-1503.208,1745.468Z"/><path class="t" d="M-1487.583,1745.977a1.147,1.147,0,0,1,.017-1.623,1.153,1.153,0,0,1,.783-.328h.49a2.183,2.183,0,0,0,1.588-.393,1.436,1.436,0,0,0,.345-.981v-7.275a3.912,3.912,0,0,1,2.948-3.864,3.92,3.92,0,0,1-2.948-3.868v-7.271a1.441,1.441,0,0,0-.345-.984,2.192,2.192,0,0,0-1.588-.394h-.49a1.081,1.081,0,0,1-.8-.342,1.147,1.147,0,0,1,.018-1.624,1.151,1.151,0,0,1,.782-.328h.394a5.792,5.792,0,0,1,3.389.854,3.535,3.535,0,0,1,1.2,3.078v6.912a3.482,3.482,0,0,0,.163,1.148,1.829,1.829,0,0,0,.822.865,5.617,5.617,0,0,0,2.028.64,1.337,1.337,0,0,1,.835.442,1.5,1.5,0,0,1,0,1.738,1.329,1.329,0,0,1-.835.443,5.768,5.768,0,0,0-2.028.638,1.843,1.843,0,0,0-.822.867,3.439,3.439,0,0,0-.163,1.148v6.916a3.535,3.535,0,0,1-1.2,3.08,5.777,5.777,0,0,1-3.389.853h-.394A1.1,1.1,0,0,1-1487.583,1745.977Z"/><rect class="br" width="56.204" height="40.146" rx="4.051" transform="matrix(0.92, -0.391, 0.391, 0.92, -1796.976, 1799.401)"/><path class="t" d="M-1750,1811.31a1.386,1.386,0,0,1-1.815-.737,1.383,1.383,0,0,1-.009-1.055l3.645-9.029-9.025-3.644a1.386,1.386,0,0,1-.737-1.815,1.385,1.385,0,0,1,1.773-.753l10.309,4.164a1.383,1.383,0,0,1,.767,1.8l0,0-4.164,10.31A1.38,1.38,0,0,1-1750,1811.31Z"/><path class="t" d="M-1769.3,1819.5a1.374,1.374,0,0,1-1.059.009l-10.31-4.165a1.386,1.386,0,0,1-.765-1.8l4.164-10.31a1.385,1.385,0,0,1,1.816-.734,1.384,1.384,0,0,1,.751,1.773l-3.647,9.024,9.028,3.649a1.384,1.384,0,0,1,.762,1.8,1.386,1.386,0,0,1-.74.753Z"/><path class="t" d="M-1762.066,1816.432a1.328,1.328,0,0,1-.43.1,1.383,1.383,0,0,1-1.49-1.266v0l-1.319-16.523a1.384,1.384,0,0,1,1.239-1.514,1.383,1.383,0,0,1,1.515,1.239c0,.019,0,.038,0,.056l1.321,16.522A1.386,1.386,0,0,1-1762.066,1816.432Z"/><path class="bs" d="M-1598.76,1738.462c-2.573,1.145-5.15,2.282-7.716,3.442-.709.316-1.592.606-1.194,1.681.442,1.208,1.276.533,1.963.311a86.26,86.26,0,0,0,8.233-3.5c1.258-.56,2.015-.366,2.469.967.234.691.578,1.345.876,2.014,1.6,3.587.951,5.8-2.277,8.076-4.109,2.892-8.523,5.064-13.593,5.518-3.438.307-5.525-.431-6.979-4.144-1.252-3.2-2.784-6.283-4.142-9.437-1.681-3.9-.526-6.927,3.357-8.723q4.9-2.268,9.883-4.391a21.2,21.2,0,0,0,3.526-1.975c2.594-1.759,3.367-5.131,1.973-8.64-.561-1.413-1.193-2.8-1.839-4.176-.444-.948-.307-1.6.724-2.01,1.151-.456,2.271-.992,3.428-1.434a4.807,4.807,0,0,1,4.206.59c4.955,2.8,9.266,12.041,8.236,17.659a6.186,6.186,0,0,1-3.736,4.861c-2.475,1.084-4.936,2.2-7.41,3.3Zm2.529,6.944a2.413,2.413,0,0,0-3.161-1.111,2.515,2.515,0,0,0-1.284,3.245,2.9,2.9,0,0,0,3.346,1.24,2.736,2.736,0,0,0,1.1-3.375Z"/><path class="bt" d="M-1613.595,1706.123l.426.093.5.18-.014-.017a1.152,1.152,0,0,0,1.395.84,1.122,1.122,0,0,0,.117-.036l-.006.012c.008.69.656.982.929,1.509,1.482,3.328,2.953,6.66,4.445,9.983.22.493.3,1.107.914,1.34,1.387,3.534.2,6.5-3.4,8.183-3.419,1.6-6.9,3.06-10.34,4.612a17.248,17.248,0,0,0-2.675,1.428,6.593,6.593,0,0,0-2.71,8.393,43.445,43.445,0,0,0,1.936,4.5c.59,1.2.492,1.862-.861,2.465-5.31,2.353-7.815,1.745-11.241-3.016-2.681-3.727-4.581-7.754-4.466-12.49.061-2.588.949-4.719,3.354-5.995.549.186.977-.153,1.424-.353q7.68-3.414,15.352-6.845a.6.6,0,0,0,.372-.764.615.615,0,0,0-.082-.156.451.451,0,0,1-.019-.29c.744-1.09.012-1.163-.809-1.173l-.136-.018a.762.762,0,0,0-1.06-.13c-3.12,1.742-6.818,2.214-9.728,4.42l-.025.019c-.791-2.431-2.208-4.614-2.821-7.116h0a.274.274,0,0,0,.131-.456l.011-.022c.238-.069.3-.214.184-.431v-.02c.534-.051.656-.35.495-.819l-.005,0a.609.609,0,0,0,.461-.61l-.009.013c.457-.313.936-.6,1.365-.948,2.17-1.744,4.86-2.682,6.972-4.512l1.563-.645c1.025.8,1.716-.386,2.615-.454C-1617.212,1706.663-1615.4,1706.356-1613.595,1706.123Zm-13.133,12.5a2.432,2.432,0,0,0,1.229-3.213l-.011-.026a2.516,2.516,0,0,0-3.3-1.1,2.477,2.477,0,0,0-1.145,3.138,2.373,2.373,0,0,0,3.114,1.253C-1626.8,1718.659-1626.766,1718.641-1626.728,1718.623Z"/><path class="bu" d="M-1618.51,1720.905q-7.674,3.426-15.352,6.846c-.447.2-.875.538-1.424.353l11.4-5.153C-1622.059,1722.367-1620.5,1721.079-1618.51,1720.905Z"/><path class="bv" d="M-1629.974,1722.793c2.909-2.2,6.608-2.677,9.727-4.42a.765.765,0,0,1,1.061.13c-3.112,1.073-6.054,2.547-9.08,3.824C-1628.805,1722.558-1629.3,1723.035-1629.974,1722.793Z"/><path class="bv" d="M-1623.211,1707.9c-2.113,1.83-4.8,2.769-6.972,4.512-.431.346-.909.634-1.365.948C-1629.39,1710.587-1626.32,1709.211-1623.211,1707.9Z"/><path class="bv" d="M-1632.82,1715.7c.612,2.5,2.028,4.683,2.82,7.116-.2-.068-.519-.077-.589-.214a28.125,28.125,0,0,1-2.4-5.626A1.461,1.461,0,0,1-1632.82,1715.7Z"/><path class="bv" d="M-1613.595,1706.122c-1.811.236-3.617.54-5.436.677-.9.071-1.589,1.256-2.615.455A14.023,14.023,0,0,1-1613.595,1706.122Z"/><path class="bw" d="M-1604.887,1720.025c-.617-.233-.692-.848-.914-1.34-1.493-3.323-2.963-6.655-4.445-9.983l.3-.111Z"/><path class="bv" d="M-1618.511,1720.9c-1.987.174-3.548,1.463-5.378,2.047,1.771-1.215,4.045-1.467,5.669-2.963a.6.6,0,0,1-.139.838A.6.6,0,0,1-1618.511,1720.9Z"/><path class="bv" d="M-1611.166,1707.182a1.152,1.152,0,0,1-1.476-.689.916.916,0,0,1-.035-.116A1.911,1.911,0,0,1-1611.166,1707.182Z"/><path class="bv" d="M-1619.05,1718.521c.821.011,1.553.085.808,1.174Z"/><path class="bv" d="M-1609.949,1708.592l-.3.112c-.27-.528-.922-.82-.931-1.509A2.159,2.159,0,0,1-1609.949,1708.592Z"/><path class="bv" d="M-1631.994,1713.949c.161.47.039.768-.494.82A1.049,1.049,0,0,1-1631.994,1713.949Z"/><path class="bv" d="M-1631.539,1713.346a.61.61,0,0,1-.461.611Z"/><path class="bv" d="M-1632.489,1714.789c.11.217.052.363-.184.43C-1632.613,1715.075-1632.551,1714.932-1632.489,1714.789Z"/><path class="bv" d="M-1612.665,1706.4l-.5-.18Z"/><path class="bv" d="M-1632.685,1715.243c.136.2.085.353-.131.456Z"/><path class="bx" d="M-1596.231,1745.405a2.735,2.735,0,0,1-1.1,3.371,2.9,2.9,0,0,1-3.345-1.239,2.515,2.515,0,0,1,1.283-3.246A2.411,2.411,0,0,1-1596.231,1745.405Z"/><path class="by" d="M-1626.727,1718.622a2.372,2.372,0,0,1-3.176-1.084c-.018-.035-.034-.071-.05-.108a2.477,2.477,0,0,1,1.146-3.138,2.514,2.514,0,0,1,3.3,1.1,2.432,2.432,0,0,1-1.2,3.223Z"/><path class="bz" d="M-1412.031,1840.722l-.149-.069a10.811,10.811,0,0,0-1.209-1.043,8.012,8.012,0,0,0-.861-.732,8.045,8.045,0,0,0-.87-.737.334.334,0,0,0-.171-.143l-.037-.037-.1-.076a17.136,17.136,0,0,0-1.417-1.22,9.051,9.051,0,0,0-.865-.747,3.635,3.635,0,0,0-.837-.649c0-.032,0-.06-.035-.069l-.09-.056a3.342,3.342,0,0,0-.767-.7,8.261,8.261,0,0,0-.862-.733,7.664,7.664,0,0,0-.867-.743q-.834-.777-1.732-1.479a8.023,8.023,0,0,0-.859-.74,8.045,8.045,0,0,0-.87-.737l-.069-.046a4.589,4.589,0,0,0-.8-.7,8.179,8.179,0,0,0-.864-.734,7.239,7.239,0,0,0-.865-.747,3.371,3.371,0,0,0-.516-.438c-.247-.161-.233-.363-.106-.6a1.9,1.9,0,0,0,.111-.362l.04-.11a9.922,9.922,0,0,0,.417-1.129l.372-1.034a7.526,7.526,0,0,0,.374-1.039c.2-.319.186-.715.374-1.04a7.282,7.282,0,0,0,.387-1.033l.371-1.033a8.707,8.707,0,0,0,.375-1.039,7.8,7.8,0,0,0,.374-1.039,6.4,6.4,0,0,0,.374-1.039,8.21,8.21,0,0,0,.379-1.027c.076-.194.16-.387.226-.585.165-.5.389-.98.519-1.492a6.751,6.751,0,0,0,.374-1.039,6.474,6.474,0,0,0,.38-1.037l.362-.977a11.182,11.182,0,0,0,.406-1.135,7.364,7.364,0,0,0,.351-.99,5.872,5.872,0,0,0,.374-1.039,9.336,9.336,0,0,0,.382-1.025,9.393,9.393,0,0,0,.374-1.039,9.837,9.837,0,0,0,.372-1.035c.268-.686.541-1.37.749-2.078a8.609,8.609,0,0,0,.381-1.026l.374-1.04a9.06,9.06,0,0,0,.375-1.039,6.073,6.073,0,0,0,.374-1.039,7.978,7.978,0,0,0,.381-1.027l.4-1.087.351-.989a6.277,6.277,0,0,0,.374-1.039,5.759,5.759,0,0,0,.374-1.039c.275-.681.539-1.364.756-2.067a8.272,8.272,0,0,0,.372-1.034,6.837,6.837,0,0,0,.374-1.04,8.887,8.887,0,0,0,.381-1.027l.374-1.039a9.423,9.423,0,0,0,.372-1.034,7.173,7.173,0,0,0,.374-1.039,1.2,1.2,0,0,1,.142-.428,2.173,2.173,0,0,0,.235-.6,8.533,8.533,0,0,0,.374-1.039l.372-1.034c.051-.126.1-.251.153-.378.221-.559.377-1.136.637-1.676l44.616,20.8c-.057.123-.114.246-.178.365-.3.525-.595,1.039-.889,1.561l-.552.948a8.45,8.45,0,0,0-.556.955,7.522,7.522,0,0,0-.547.949,7.113,7.113,0,0,0-.556.955l-.553.949-.555.955a8.5,8.5,0,0,0-.542.952,6.638,6.638,0,0,0-.555.955,8.344,8.344,0,0,0-.556.955c-.4.618-.75,1.264-1.1,1.912a6.445,6.445,0,0,0-.554.95,6.485,6.485,0,0,0-.555.955,10.425,10.425,0,0,0-.556.954,9.28,9.28,0,0,0-.555.955,8.281,8.281,0,0,0-.543.951,6.4,6.4,0,0,0-.555.954,7.99,7.99,0,0,0-.556.955,8.415,8.415,0,0,0-.555.955l-.548.95c-.4.619-.756,1.262-1.107,1.912a7.768,7.768,0,0,0-.555.954,9.471,9.471,0,0,0-.556.955,8.417,8.417,0,0,0-.54.952,5.942,5.942,0,0,0-.555.955,7.629,7.629,0,0,0-.556.954,8.592,8.592,0,0,0-.555.955q-.276.476-.553.948a8.324,8.324,0,0,0-.547.959,5.282,5.282,0,0,0-.555.954c-.409.613-.75,1.265-1.111,1.91q-.276.476-.553.949a7.334,7.334,0,0,0-.547.959,5.186,5.186,0,0,0-.555.954,6.778,6.778,0,0,0-.556.955l-.532.905-.578,1a8.207,8.207,0,0,0-.544.951,6.583,6.583,0,0,0-.555.955l-.553.949c-.312.529-.631,1.053-.931,1.589a.309.309,0,0,1-.338.193,4.281,4.281,0,0,0-.786-.131,8.9,8.9,0,0,0-1.124-.193,9.166,9.166,0,0,0-1.115-.189,5.537,5.537,0,0,0-1.1-.172.018.018,0,0,0-.021-.014h-.005a8.38,8.38,0,0,0-1.2-.205,6.651,6.651,0,0,0-1.048-.171c-.744-.153-1.489-.291-2.244-.376a9.2,9.2,0,0,0-1.117-.19,8.782,8.782,0,0,0-1.129-.183c-.743-.155-1.492-.274-2.243-.377l-1.123-.193c-.634-.119-1.267-.241-1.91-.3a.809.809,0,0,0-.344-.06,7.833,7.833,0,0,0-1.117-.19,7.831,7.831,0,0,0-1.128-.184A11.194,11.194,0,0,0-1412.031,1840.722Zm17.044-32.634q-1.894,4.065-3.791,8.129c-.183.393-.209.329.175.509l7.032,3.279c.205.095.244.158.118.37-.753,1.264-1.487,2.539-2.227,3.809q-.778,1.338-1.558,2.676c-.078.135-.147.224-.341.173-2.356-.625-4.713-1.235-7.068-1.862-.213-.057-.3-.018-.4.18q-1.23,2.666-2.481,5.32c-.1.206-.1.28.156.334q6.466,1.382,12.932,2.79c.246.053.332-.024.44-.215.645-1.134,1.3-2.262,1.958-3.391q1.328-2.286,2.66-4.571.982-1.694,1.961-3.388c.882-1.517,1.761-3.035,2.653-4.545.135-.229.111-.324-.137-.438-2.431-1.123-4.853-2.263-7.285-3.384-.233-.109-.285-.189-.168-.437q1.224-2.577,2.412-5.171c.1-.225.188-.267.421-.157q3.881,1.827,7.774,3.632l.174.081c.109.061.174.039.24-.076q1.425-2.479,2.868-4.957c.134-.228.065-.3-.145-.4q-7.085-3.293-14.163-6.6c-.237-.111-.317-.058-.418.162q-1.89,4.077-3.8,8.151Zm-6.407,5.781q3.582-7.681,7.169-15.361c.107-.229.072-.315-.154-.421q-5.969-2.771-11.927-5.561c-.244-.114-.319-.055-.4.172q-.936,2.634-1.89,5.261c-.083.226-.012.312.191.406,1.942.9,3.876,1.808,5.818,2.7.194.09.255.163.153.382q-4.334,9.27-8.648,18.547c-.092.2-.168.241-.358.114q-1.251-.838-2.516-1.657a.2.2,0,0,1-.091-.292c.139-.357.262-.72.394-1.08.378-1.049.75-2.1,1.135-3.145.07-.188.036-.271-.146-.351-.618-.275-1.225-.571-1.839-.857l-3.329-1.553c-.159-.074-.234-.075-.295.115-.124.384-.275.755-.411,1.133q-.894,2.474-1.785,4.949c-.319.885-.636,1.771-.96,2.654a.241.241,0,0,0,.106.335q3.131,2.279,6.254,4.571c1.994,1.462,3.99,2.921,5.978,4.4.239.177.3.113.409-.121q3.561-7.668,7.142-15.335Z"/><path class="ca" d="M-1394.986,1808.088l3.8-8.157c.1-.219.182-.271.418-.161q7.076,3.313,14.163,6.6c.208.1.277.167.145.4-.964,1.647-1.916,3.3-2.869,4.957-.065.115-.131.137-.239.076l-.174-.081q-3.89-1.813-7.775-3.632c-.233-.109-.316-.068-.42.157q-1.193,2.592-2.412,5.171c-.116.249-.066.329.167.437,2.432,1.123,4.854,2.263,7.286,3.384.248.116.272.209.137.438-.891,1.511-1.771,3.028-2.653,4.545q-.983,1.692-1.961,3.388-1.329,2.287-2.661,4.571c-.655,1.129-1.312,2.257-1.957,3.391-.109.19-.195.268-.44.215q-6.461-1.409-12.933-2.79c-.252-.054-.252-.128-.155-.334q1.251-2.655,2.481-5.321c.093-.2.182-.236.4-.18,2.356.626,4.714,1.237,7.069,1.862.2.052.262-.038.34-.173q.777-1.338,1.558-2.676c.741-1.271,1.474-2.545,2.227-3.809.126-.212.088-.276-.118-.37q-3.519-1.631-7.032-3.279c-.384-.179-.358-.115-.174-.509Q-1396.882,1812.153-1394.986,1808.088Z"/><path class="ca" d="M-1401.4,1813.87q-3.576,7.67-7.147,15.342c-.11.235-.17.3-.41.121-1.985-1.477-3.983-2.932-5.978-4.394q-3.124-2.29-6.254-4.571a.24.24,0,0,1-.1-.335c.325-.884.64-1.769.959-2.654l1.785-4.95c.137-.377.288-.748.411-1.132.062-.192.138-.189.3-.115,1.107.522,2.219,1.035,3.328,1.552.613.286,1.223.579,1.839.858.182.084.216.164.147.351-.386,1.045-.757,2.1-1.136,3.144-.129.361-.252.724-.393,1.081a.2.2,0,0,0,.091.292q1.263.82,2.516,1.656c.19.128.265.084.357-.113q4.319-9.276,8.649-18.547c.1-.219.041-.293-.153-.382-1.941-.9-3.876-1.808-5.818-2.7-.2-.095-.274-.18-.192-.406q.957-2.626,1.891-5.261c.08-.227.156-.287.4-.172q5.957,2.793,11.926,5.561c.226.1.262.191.155.421Q-1397.817,1806.186-1401.4,1813.87Z"/><path class="ah" d="M-1754.334,1963.257c.322.99.651,1.977.959,2.971.081.249.163.328.434.234q1.317-.459,2.656-.863c.253-.083.288-.179.211-.42q-.933-2.956-1.844-5.93c-.066-.2-.232-.408-.117-.625a1.841,1.841,0,0,1,.7-.89,7.894,7.894,0,0,1,2.268-.748c.455-.076.8.242,1.187.42.222.1.21.352.27.538.632,1.926,1.263,3.851,1.878,5.781.1.294.205.335.484.238q1.287-.449,2.593-.842c.257-.084.314-.172.227-.436-.641-1.933-1.265-3.873-1.9-5.81a1.475,1.475,0,0,1,.649-1.644,7.618,7.618,0,0,1,2.244-.714,1.97,1.97,0,0,1,1.12.323c.126.064.13.222.171.343.687,2.023,1.377,4.043,2.05,6.07.089.273.187.33.463.234.858-.3,1.722-.583,2.593-.843.309-.091.321-.219.232-.488-.636-1.924-1.257-3.852-1.883-5.779a1.461,1.461,0,0,1,.63-1.619,7.4,7.4,0,0,1,2.308-.726,1.052,1.052,0,0,1,1.088.586,7.633,7.633,0,0,1,.7,1.591q.771,2.289,1.5,4.591c.087.268.186.3.438.215a8.606,8.606,0,0,1,1.7-.481,2.472,2.472,0,0,1,2.574,1.573c.159.444.313.89.442,1.342.066.234.152.282.389.2,1.413-.471,2.832-.926,4.25-1.381a12.614,12.614,0,0,1,1.782-.451,1.207,1.207,0,0,1,1.568.827,12.335,12.335,0,0,1,.575,1.706,1.959,1.959,0,0,1-.406,1.507c-.063.116-.2.12-.316.156l-5.937,1.929c-.4.129-.4.129-.263.538.278.856.564,1.709.826,2.564.08.246.169.3.418.216q2.955-.936,5.929-1.846c.2-.066.412-.231.625-.12a1.823,1.823,0,0,1,.893.7,7.6,7.6,0,0,1,.748,2.268,1.5,1.5,0,0,1-.949,1.464c-1.937.63-3.873,1.264-5.814,1.883-.256.083-.316.174-.225.436q.456,1.323.863,2.656c.079.26.186.279.42.2,1.944-.641,3.9-1.267,5.844-1.9a1.5,1.5,0,0,1,1.6.62,7.4,7.4,0,0,1,.733,2.305,1.99,1.99,0,0,1-.318,1.088c-.062.134-.22.135-.341.175-2.022.688-4.043,1.379-6.07,2.05-.3.1-.331.213-.236.488q.447,1.288.843,2.594c.083.256.174.312.436.226,1.934-.64,3.873-1.265,5.811-1.9a1.455,1.455,0,0,1,1.643.644,7.22,7.22,0,0,1,.7,2.281,1.071,1.071,0,0,1-.578,1.093,7.436,7.436,0,0,1-1.62.715q-2.256.76-4.528,1.482c-.238.077-.3.163-.229.409.144.517.312,1.026.417,1.555a2.338,2.338,0,0,1-1.32,2.63c-.505.243-1.04.406-1.561.606-.211.081-.248.167-.178.381.456,1.372.894,2.75,1.341,4.125a13.213,13.213,0,0,1,.469,1.845,1.239,1.239,0,0,1-.828,1.6,11.631,11.631,0,0,1-1.7.58c-.586.17-1.034-.169-1.5-.419-.113-.06-.115-.206-.152-.319-.647-1.99-1.3-3.977-1.934-5.97-.092-.286-.2-.345-.481-.245-.858.3-1.723.578-2.593.843-.25.081-.321.164-.236.433q.939,2.959,1.848,5.929c.065.2.23.409.115.625a1.861,1.861,0,0,1-.7.889,7.79,7.79,0,0,1-2.237.739,1.486,1.486,0,0,1-1.487-.957q-.94-2.891-1.873-5.783c-.085-.26-.162-.348-.452-.246-.868.3-1.744.586-2.625.852-.259.084-.31.177-.225.436.64,1.934,1.265,3.874,1.9,5.811a1.5,1.5,0,0,1-.619,1.63,7.587,7.587,0,0,1-2.274.728,1.97,1.97,0,0,1-1.12-.322c-.131-.062-.131-.221-.172-.342-.688-2.022-1.377-4.043-2.051-6.07-.087-.267-.179-.336-.46-.238q-1.3.454-2.625.852c-.27.082-.3.189-.216.442.639,1.934,1.264,3.874,1.893,5.811a1.471,1.471,0,0,1-.594,1.608,6.729,6.729,0,0,1-2.405.735,1.051,1.051,0,0,1-1.024-.585,7.457,7.457,0,0,1-.715-1.62q-.76-2.258-1.482-4.529c-.08-.246-.175-.287-.414-.222-.516.142-1.034.286-1.553.419a2.5,2.5,0,0,1-2.779-1.574c-.121-.444-.3-.871-.426-1.313-.065-.222-.153-.259-.37-.188-1.268.423-2.542.826-3.813,1.239a15.711,15.711,0,0,1-2.22.591,1.214,1.214,0,0,1-1.59-.841,12.115,12.115,0,0,1-.572-1.713,1.976,1.976,0,0,1,.423-1.5c.058-.109.208-.111.321-.148,1.989-.647,3.977-1.3,5.968-1.94.265-.085.344-.168.244-.454-.308-.879-.591-1.766-.863-2.656-.077-.237-.167-.274-.4-.2q-2.956.933-5.929,1.847c-.2.066-.418.228-.625.126a1.777,1.777,0,0,1-.9-.69,7.439,7.439,0,0,1-.757-2.3,1.511,1.511,0,0,1,.94-1.438c1.937-.63,3.873-1.265,5.814-1.882.279-.091.326-.189.232-.46q-.448-1.287-.843-2.593c-.082-.271-.172-.336-.456-.241-1.933.642-3.872,1.265-5.81,1.9a1.526,1.526,0,0,1-1.607-.607,7.481,7.481,0,0,1-.739-2.305,1.93,1.93,0,0,1,.333-1.116c.064-.126.224-.124.345-.166,2.023-.687,4.045-1.376,6.07-2.051.251-.081.322-.172.229-.438q-.458-1.323-.863-2.656c-.082-.253-.179-.288-.419-.209-1.946.642-3.9,1.272-5.842,1.9a1.472,1.472,0,0,1-1.6-.616,7.142,7.142,0,0,1-.739-2.37,1.027,1.027,0,0,1,.564-1.033,7.329,7.329,0,0,1,1.59-.7q2.289-.769,4.591-1.5c.244-.079.29-.172.223-.413-.146-.527-.321-1.047-.421-1.587a2.4,2.4,0,0,1,1.572-2.739c.412-.147.826-.293,1.249-.406.269-.073.339-.163.242-.451-.431-1.264-.835-2.538-1.239-3.812a16.717,16.717,0,0,1-.584-2.189,1.176,1.176,0,0,1,.837-1.545c.5-.226,1.031-.368,1.547-.551a1.921,1.921,0,0,1,1.667.369c.106.059.113.183.146.284Q-1754.829,1961.727-1754.334,1963.257Zm19.776,23.862-.011-.034c.7-.226,1.4-.44,2.091-.685.327-.117.344-.218.146-.469l-9.632-12.346a.337.337,0,0,0-.445-.124c-.611.21-1.231.395-1.842.606-.693.239-1.4.431-2.074.736a.474.474,0,0,0-.307.479q-.288,7.743-.59,15.485c-.015.369.023.4.392.311.064-.016.128-.03.193-.053,1.231-.417,2.467-.839,3.7-1.249a.3.3,0,0,0,.229-.337c0-.547.02-1.094.014-1.641a.312.312,0,0,1,.253-.352q2.07-.7,4.131-1.425a.312.312,0,0,1,.425.118l.009.017c.32.482.669.947.991,1.431a.328.328,0,0,0,.436.162l.022-.011c.612-.221,1.241-.415,1.866-.618Zm.953-8.474.067-.022q1.137,3.5,2.269,7c.078.239.161.306.415.221,1.3-.436,2.6-.856,3.905-1.269.209-.068.269-.144.2-.37q-2.251-7.023-4.486-14.054c-.078-.239-.171-.271-.4-.195q-1.992.663-4,1.3c-.276.09-.325.183-.233.459.765,2.3,1.512,4.618,2.263,6.93Z"/><path class="ah" d="M-1742.673,1979.2c.473.559.859,1.127,1.25,1.688.432.619.844,1.252,1.278,1.869.132.187.1.3-.1.377a12.341,12.341,0,0,1-2.156.683c-.162.033-.306.031-.316-.2a40.751,40.751,0,0,1-.013-4.3C-1742.729,1979.3-1742.71,1979.277-1742.673,1979.2Z"/></g></svg>